<?xml version="1.0" encoding="utf-8"?>
<!-- Generator: Adobe Illustrator 21.1.0, SVG Export Plug-In . SVG Version: 6.00 Build 0)  -->
<svg version="1.1" id="Layer_1" xmlns="http://www.w3.org/2000/svg" xmlns:xlink="http://www.w3.org/1999/xlink" x="0px" y="0px"
	 viewBox="0 0 612 792" style="enable-background:new 0 0 612 792;" xml:space="preserve">
<style type="text/css">
	.st0{fill:none;}
	.st1{fill:#0E1137;}
	.st2{fill:#C04B27;}
</style>
<g>
	<rect x="74" y="187.5" class="st0" width="278.5" height="292.5"/>
	<path class="st1" d="M269.5,226.5c-0.5,6.5-1.5,12.4-3,17.8c-1.5,5.3-3.2,10.5-5.1,15.4c-1.9,4.9-3.9,9.8-6,14.8
		c-2.1,4.9-3.9,10.1-5.4,15.6l0.3-0.3c-2.2,4.3-3.9,9.2-5.1,14.6c-1.3,5.4-3,10-5.1,13.9c-0.3,1.5-0.9,3.9-1.8,7.3
		c-0.8,3.3-1.7,6.9-2.5,10.6c-0.8,3.8-1.7,7.3-2.6,10.8c-0.9,3.4-1.7,6-2.4,7.6c0.3,0.8,0.3,1.5,0,2c-0.3,0.5-0.7,0.9-1,1.3
		c0.2,0.5,0.3,0.6,0.4,0.3c0.1-0.3,0.2-0.6,0.4-0.8c0.3,0.3,0.3,0.7,0,1c-0.3,0.3-0.4,0.7-0.3,1c-0.3-0.3-0.6-0.2-0.8,0.5
		c-0.2,0.3-0.1,0.5,0.1,0.4c0.3-0.1,0.4,0,0.4,0.4c-0.2,0.8-0.2,1.8-0.1,2.8c0.1,1-0.3,1.6-1.1,1.8c-0.8,5.8-1.4,11.7-1.8,17.6
		c-0.3,5.9-0.7,11.8-1,17.6c0.2,0.7,0.7,1.3,1.5,1.8c0,1-0.3,1.7-0.8,2.1c-0.5,0.4-0.7,1-0.5,1.9c-1.2-0.5-2.6-0.8-4.3-1
		c-1.7-0.2-2.8-1.2-3.3-3c-1.3,0.8-2.5,0.5-3.5-1.1c-1-1.6-2.1-2.9-3.3-3.9c-0.2-0.7,0.1-1,0.8-1c-0.5-1.5-0.9-2.8-1.1-4
		c-0.3-1.2-0.4-2.3-0.5-3.5c-0.1-1.2-0.2-2.5-0.3-3.9c-0.1-1.4-0.1-3-0.1-4.9c0.5,0,0.8,0.3,0.8,0.8c0.3-0.8,0.3-1.8-0.1-2.9
		c-0.4-1.1-0.4-2,0.1-2.9c0.5,0.7,0.8,0.3,1-1.3c0.2-1.5,0.2-2.7,0-3.5c-0.3-0.2-0.4,0-0.3,0.6c0.2,0.6,0,0.7-0.5,0.4
		c-0.3-0.7-0.3-1.2,0-1.6c0.3-0.4,0.1-0.6-0.8-0.6c0.7-0.2,1-0.5,0.9-1.1c-0.1-0.6,0-1.1,0.4-1.6c0.2,0,0.3,0.2,0.3,0.5
		c0.3-1,0.4-1.5,0.1-1.4c-0.3,0.1,0-0.4,0.9-1.4c-0.2-0.3-0.3-0.3-0.5,0c-0.2,0.3-0.4,0.3-0.8,0c0.2-0.5,0.7-0.7,1.5-0.5
		c0.2-0.5,0.1-0.8-0.1-0.9c-0.3-0.1-0.5-0.2-0.9-0.4c0.2-0.3,0.3-0.4,0.4-0.1c0.1,0.3,0.3,0.2,0.6-0.1c-1-2.2-1.2-4.8-0.5-7.9
		c0.7-3.1,1.3-6,1.8-8.6c0.3,0,0.5,0.1,0.4,0.3c-0.1,0.2,0,0.4,0.1,0.8c0.7-0.7,0.9-1.6,0.8-2.8c-0.7-0.3-0.9-0.2-0.6,0.5
		c0.3,0.7,0,0.9-0.6,0.8c0.3-0.3,0.5-0.8,0.4-1.3c-0.1-0.5,0-0.9,0.4-1.3c0.2,0,0.3,0.3,0.3,1c0.5-0.8,0.8-1.6,0.9-2.4
		c0.1-0.8,0.3-1.8,0.6-3.1c-0.2-0.3-0.3-0.4-0.4-0.1c-0.1,0.3-0.3,0.2-0.6-0.1c0.5-3.8,1.3-7,2.3-9.5s1.6-5.6,1.8-9.3
		c0.2-0.3,0.4-0.4,0.6-0.3c0.3,0.2,0.4,0.1,0.4-0.3c-0.2-0.7-0.4-1.1-0.6-1.3c-0.3-0.2-0.4-0.5-0.4-1c0-0.3,0.2-0.3,0.5,0
		c0.3,0.3,0.7,0.3,1,0c0.8-2.8,1.8-6,3-9.6c1.2-3.6,2.7-6.5,4.5-8.9c-0.3-0.2-0.5-0.1-0.5,0.1s-0.2,0.5-0.5,0.6
		c-0.3-0.5-0.5-0.8-0.5-1c0-0.2-0.3-0.3-1-0.5c0.3-1.5,0.8-2.3,1.5-2.5c0.7-0.2,1.1-0.9,1.3-2.3c-0.5,0-0.8,0.2-0.9,0.6
		c-0.1,0.4-0.4,0.5-0.9,0.1c0.5-0.8,0.9-1.5,1.1-2s0.5-1.1,0.9-1.8c0.3,0.7,0.6,0.9,0.9,0.8c0.3-0.2,0.4-0.5,0.5-1
		c0.1-0.5,0.2-1,0.3-1.5c0.1-0.5,0.1-0.8,0.1-1c0.3-0.8,0.9-1.9,1.6-3.3c0.8-1.3,1.2-2.6,1.4-3.8c-0.2-0.5-0.4-0.6-0.6-0.3
		c-0.3,0.3-0.5,0.6-0.6,0.8c-0.3-0.2-0.3-0.5,0-1c0.3-0.5,0.7-0.8,1-0.8c-0.3,0.3-0.4,0.5-0.3,0.4c0.2-0.1,0.4-0.1,0.8-0.1
		c0.5-1.3,1-2.4,1.5-3.3c0.5-0.8,0.9-1.8,1.3-2.8c0.5,0.5,0.5,1,0,1.5s-0.7,1.1-0.5,1.8c0.3-0.3,0.6-0.8,0.8-1.4
		c0.2-0.6,0.5-1,1-1.4c-0.8,0.3-1.1-0.1-0.9-1.4s0.5-2.3,0.9-3.1c-0.7,0-0.9,0.3-0.8,1c0.2,0.7-0.2,0.8-1,0.5
		c-0.3-0.3-0.2-0.6,0.4-0.9c0.6-0.3,0.6-0.5,0.1-0.9c0-0.3,0.2-0.4,0.5-0.3c0.3,0.2,0.6,0.3,0.8,0.3c0.3-0.3,0.5-0.7,0.5-1
		c-1.2,0.2-1.5-0.1-1.1-0.9c0.4-0.8,0.5-1.5,0.1-2.1c0.5,0.5,0.9,0.4,1.3-0.3c0.3,0.3,0.4,0.7,0.3,1c-0.2,0.3-0.3,0.8-0.5,1.3
		c1-0.7,1.8-2,2.4-4.1c0.6-2.1,1.3-3.9,2.1-5.4l-0.5-1c0.3,0.2,0.7-0.1,1-0.8c0.3-0.7,0.6-1.3,0.8-2c-0.5-0.3-0.8-0.2-0.8,0.4
		c0,0.6-0.2,0.6-0.5,0.1c0.8-3.7,1.9-7.4,3.3-11.1c1.3-3.8,2.8-7.5,4.5-11.4c-7,5.3-13.4,11.2-19.1,17.6
		c-5.8,6.4-10.5,13.1-14.4,20.1c-6.7,8.5-12.9,17.7-18.6,27.6c-5.8,9.9-10.8,20.4-15.1,31.4l-1.5,1c-3.2,8.5-7,16.7-11.5,24.6
		c-4.5,7.9-8.7,16.1-12.5,24.6c-1.3,0.3-2.9,0.4-4.6,0.3c-1.8-0.2-3.4-0.6-4.9-1.3c-1.5-0.7-2.8-1.5-3.8-2.6c-1-1.1-1.3-2.4-1-3.9
		c0.3-1.3,0.5-2.5,0.4-3.6c-0.1-1.1-0.2-2.2-0.4-3.4l1.3,0.3l1-0.3c-0.3-1.2-0.4-2.6-0.1-4.4s0-3.3-0.9-4.6c0,0.3-0.1,0.7-0.4,1
		c-0.3,0.3-0.3,0.9-0.1,1.8c-0.8-0.2-1.2-0.7-1-1.5c0.2-0.8,0.2-1.7,0-2.5c0.8,0,1.3,0.1,1.5,0.3c0.5-0.2,0.7-0.5,0.5-0.9
		c-0.2-0.4-0.1-0.8,0.3-1.1c-0.8-0.3-1.3-0.3-1.3,0.1c0,0.4-0.1,0.8-0.3,1.1c-0.8-0.7-1.3-1.9-1.3-3.8c0-1.8,0.7-2.7,2-2.5
		c0.2,0.3,0.2,0.7,0,1c-0.2,0.3-0.3,0.7-0.3,1c1.5-4.3,2.5-8.9,3.1-13.6c0.6-4.8,1.5-9.3,2.6-13.6c-0.3-0.5-0.6-0.6-0.9-0.4
		s-0.5,0.1-0.6-0.4c-0.2,1-0.2,2.5-0.1,4.6c0.1,2.1-0.5,3.4-1.9,3.9c0.2,0.7,0.3,1.1,0.4,1.3c0.1,0.2-0.3,0.4-1.1,0.8
		c0-0.8,0.2-1.6,0.5-2.3c0.3-0.7,0.6-1.2,0.8-1.5c0-1.2,0-2.7,0.1-4.6c0.1-1.9,0.5-3,1.4-3.4c0.7,0.7,1.2,1,1.5,1
		c0.8-2.8,1.6-5.6,2.3-8.3c0.7-2.7,1.2-5.3,1.5-8c1.8-3.7,3.2-7.2,4.1-10.5c0.9-3.3,2-6.9,3.4-10.8c0-0.3-0.1-0.5-0.4-0.4
		c-0.3,0.1-0.4,0-0.4-0.4c-0.7,0.3-1,0.8-1.1,1.3c-0.1,0.5-0.5,0.8-1.1,1c0-0.8,0.1-1.4,0.3-1.6c0.2-0.3,0.3-0.6,0.3-1.1
		c0.5-0.2,0.9-0.2,1.3,0c0.3,0.2,0.7,0.3,1,0.5c0.8-2,1.5-3.9,2-5.8c0.5-1.8,1.2-3.8,2-6c-0.3-0.3-0.7-0.3-1,0
		c-0.3,0.3-0.6,0.6-0.8,0.8c0.7,0.2,0.6,0.8-0.1,1.9c-0.8,1.1-1.5,1.8-2.4,2.1c0.5-2.3,1.5-4,3-5c-0.2-0.2-0.3-0.6-0.3-1.3
		c0.3,0.5,0.7,0.3,1-0.5c0.2,0,0.3,0.4,0.3,1.3c0.8-1.2,1.5-2.4,1.9-3.8c0.4-1.3,0.8-2.8,1.1-4.5c-0.8,1.3-1.5,2.6-1.9,3.9
		c-0.4,1.3-1,2.4-1.6,3.4c-0.8-0.3-1-0.8-0.4-1.5c0.6-0.7,1-1.2,1.1-1.5c0-0.3-0.1-0.4-0.3-0.1c-0.2,0.3-0.3,0.2-0.3-0.1
		c-0.2-0.5,0-0.8,0.5-0.8s0.9-0.2,1.3-0.5c-0.3-0.3-0.8-0.5-1.3-0.5c0-0.5,0.2-0.8,0.5-1c0.3-0.2,0.3-0.7,0-1.5c0.8,0,1.5,0,1.9-0.1
		c0.4-0.1,0.8-0.5,1.1-1.4c-0.7-0.2-1.1,0-1.3,0.4c-0.2,0.4-0.5,0.6-1,0.6c1-3.8,2.3-7.7,3.8-11.5c1.5-3.8,2.9-7.8,4.3-11.8
		c1.3-4,2.5-8.1,3.6-12.4c1.1-4.3,1.7-8.6,1.9-13.1c-10.5,10.5-19.9,22-28.3,34.6c-8.3,12.6-16,25.9-23,39.9c-4,11-8.2,21.7-12.5,32
		c-4.3,10.3-8.4,20.6-12.3,30.8c-1.2,3.8-2.3,7.3-3.4,10.4c-1.1,3.1-2,6.1-2.9,9c-0.8,2.9-1.6,5.8-2.4,8.6c-0.8,2.8-1.3,6-1.6,9.5
		c-0.3,2.8-0.7,5-1.1,6.4c-0.4,1.4-1,2.4-1.9,3c-0.8,0.6-1.8,0.8-3,0.6c-1.2-0.2-2.6-0.4-4.3-0.8c-1.7-0.3-2.8-0.8-3.4-1.4
		c-0.6-0.6-1.5-1.3-2.6-2.1c-1.3-1.3-2.4-2.3-3.1-3c-0.8-0.7-1.2-1.9-1.4-3.8c-0.3-1.5-0.5-3-0.4-4.5c0.1-1.5,0.3-2.9,0.6-4.3
		c0.3-0.2,0.7-0.3,1-0.5c0.3-0.2,0.8-0.2,1.5,0c-0.3,0.3-0.4,0.6-0.3,0.8c0.2,0.2,0.3,0.4,0.3,0.8c0.7-2.5,1.3-5.4,1.8-8.8
		c-0.7,0.3-1,0.6-1,0.9s-0.4,0.2-1.3-0.1c-0.2,0.5,0,0.7,0.4,0.6c0.4-0.1,0.7,0,0.9,0.4c-0.3,0.3-0.7,0.4-1,0.3
		c-0.3-0.2-0.7-0.1-1,0.3c0.5-1,0.8-2.1,0.8-3.3c0.2,0.3,0.5,0.5,1,0.4c0.5-0.1,0.7,0,0.5,0.4c1-1.8,1.7-3.8,2.1-5.9
		c0.4-2.1,0.8-4.2,1.1-6.4c0.3-2.2,0.7-4.4,1.1-6.6c0.4-2.3,1-4.5,1.9-6.6v-0.3l0.5-1c-0.7-1-0.8-2.5-0.5-4.5c0.3-2,0.8-4,1.4-6.1
		c0.6-2.1,1.2-4.1,1.8-6c0.6-1.9,0.7-3.3,0.4-4.1c-0.2-0.3-0.3-0.5-0.5-0.4c-0.2,0.1-0.4,0-0.8-0.1c1-0.8,1.7-1.9,2.1-3.3
		c0.4-1.3,0.7-2.7,0.9-4.1c0.2-1.4,0.3-2.9,0.4-4.4c0.1-1.5,0.3-2.8,0.6-3.8c1.2-2.2,2-5.2,2.6-9.1c0.6-3.9,1.3-7.1,2.1-9.6
		c-0.2,0-0.4-0.2-0.6-0.6c-0.3-0.4-0.5-0.4-0.9,0.1c-0.5-0.3-0.5-0.6-0.1-0.9c0.4-0.3,0.6-0.5,0.6-0.9c0.3,0,0.5,0.1,0.6,0.3
		c0.1,0.2,0.3,0.3,0.6,0.5c-0.3-1-0.2-1.8,0.4-2.4c0.6-0.6,0.6-1.5,0.1-2.9c-0.3,0.2-0.6,0.3-0.8,0.5c-0.2,0.2-0.5,0.1-1-0.3
		c0.3-0.3,0.8-0.5,1.3-0.5s0.9-0.2,1.3-0.5c-0.2-0.7-0.5-0.8-1-0.4c-0.5,0.4-0.7,0.3-0.5-0.4c-0.3,0.2-0.5,0.3-0.5,0.4
		c0,0.1-0.1,0.2-0.3,0.4c-0.3-0.2-0.4-0.4-0.1-0.8c0.3-0.3,0.4-0.7,0.4-1c0.3,0,0.7,0,1,0c0.3,0,0.4,0.3,0.3,0.8
		c0.7-0.5,1-1.3,1-2.5c-0.5,0-0.8,0.2-0.8,0.5c0,0.3-0.2,0.7-0.5,1c-0.3,0-0.7-0.4-1-1.3c0.5,0.3,0.8,0.4,0.9,0.3
		c0.1-0.2,0.3-0.4,0.6-0.8c-0.2-0.3-0.5-0.5-0.9-0.5c-0.4,0-0.5-0.3-0.4-1c0.5,0.2,0.9,0.2,1.1,0c0.3-0.2,0.5-0.1,0.9,0.3
		c0.5-0.5,0.7-1.2,0.5-2.1c-0.2-0.9-0.1-1.6,0.3-2.1c-0.2-0.3-0.4-0.3-0.8,0.1c-0.3,0.4-0.7,0.7-1,0.9c0.3,0.3,0.5,0.6,0.4,0.8
		c-0.1,0.2,0.1,0.4,0.6,0.8c0,0.3-0.1,0.5-0.3,0.5c-0.2,0-0.3-0.1-0.4-0.3c-0.1-0.2-0.2-0.3-0.3-0.3c-0.1,0-0.1,0.3-0.1,0.8
		c-0.2-0.3-0.3-1-0.3-1.9c0-0.9,0.1-1.9,0.3-2.9c0.2-1,0.4-1.9,0.6-2.8c0.3-0.8,0.5-1.5,0.9-2c0.7-5.5,1.2-9.9,1.6-13.1
		c0.4-3.3,0.8-6.3,1.1-9c0.3-2.8,0.5-4.2,0.5-4.4c0.2-2.2,0.3-4.5,0.5-7c0.2-2.5,0.2-5,0-7.5c-0.2-2.5-0.6-5-1.3-7.4
		c-0.7-2.4-1.7-4.5-3-6.4c0.2-0.2,0.3-0.8,0.3-2c4-0.3,7.3,0.5,9.9,2.4c2.6,1.9,4.8,4.1,6.6,6.6v0.8c1.7,2,3,4.5,3.9,7.5
		c0.9,3,1.5,6.1,1.8,9.4s0.3,6.5,0,9.8s-0.5,6.1-0.9,8.6c-0.8,5.8-1.8,11.8-2.9,17.8c-1.1,6-1.8,12.3-2.1,19
		c0.8-0.7,1.4-1.6,1.6-2.8c0.3-1.2,0.8-2,1.6-2.5c-0.7,2-1.5,3.9-2.6,5.6c-1.1,1.8-1.5,3.9-1.4,6.4c-0.8,0.5-1.2,1.2-1.1,2
		c0.1,0.8,0,1.6-0.4,2.3c1.3-1.8,2.3-3.8,2.8-6c0.5-2.2,1.2-4.2,2-6c0.3-0.7,0.8-1.2,1.3-1.6c0.5-0.4,0.9-1,1.3-1.6
		c0.8-1.5,1.5-3.3,2-5.4c0.5-2.1,1.3-3.3,2.5-3.6c-0.2-0.2-0.2-0.3-0.1-0.5c0.1-0.2,0-0.3-0.1-0.5c0.5-0.2,0.8-0.5,1-1.1
		c0.2-0.6,0.3-1.2,0.3-1.9c0.2,0.2,0.5,0.3,1,0.3c1.7-4,4-8.3,7.1-12.8c3.1-4.5,5.8-9.3,8.1-14.3c1.3-0.3,2.1-1.1,2.4-2.3
		c0.3-1.2,1-2,2.1-2.5c-0.3-0.5-0.3-1,0.1-1.5c0.4-0.5,0.9-1,1.4-1.5s1-1.1,1.5-1.8c0.5-0.7,0.7-1.5,0.5-2.5
		c0.5,0.3,0.9,0.3,1.3-0.3c0.3-0.5,0.4-1.1,0.3-1.8c0.8,0.5,1.5,0.1,2.1-1.3c0.6-1.3,0.9-2.4,0.9-3.3c1-0.3,1.8-1.2,2.5-2.5
		c0.7-1.3,1.4-2.4,2.3-3.3c0.2,0,0.3,0.2,0.3,0.5c0.3,0,0.5-0.2,0.4-0.5c-0.1-0.3-0.3-0.4-0.6-0.3c0.2-0.3,0.5-0.5,1-0.4
		c0.5,0.1,0.8,0,0.8-0.4c0-0.3-0.2-0.5-0.5-0.5c0.2-0.3,0.6-0.5,1.4-0.6c0.8-0.1,0.7-0.3-0.1-0.6c0.2-0.5,0.3-0.6,0.5-0.3
		c0.2,0.3,0.4,0.5,0.8,0.5l0.8-3c0.7,0,1,0.3,1,0.8c0.2-0.5,0.4-1,0.8-1.4c0.3-0.4,0.3-0.8,0-1.1c0.3-0.2,0.8-0.4,1.3-0.6
		s0.6-0.8,0.3-1.6c0.3-0.2,0.6-0.2,0.8,0c0.2,0.2,0.5,0.1,1-0.3c-0.3-0.5-0.4-0.8-0.3-0.9c0.2-0.1,0.3-0.4,0.5-0.9
		c0.7,0.7,1,0.6,1-0.3c0-0.8,0.4-1.2,1.3-1c-0.3-0.2-0.5-0.4-0.5-0.8c-2.3,0.7-2.8,0.6-1.5-0.3c1.3-0.8,3.4-1.7,6.3-2.5
		c2.8-0.8,5.9-1.2,9.3-1.1c3.3,0.1,5.8,1.4,7.5,3.9c0,0.2,0,0.3,0.1,0.3c0.1,0,0.1,0.1,0.1,0.3c2,1.5,3.5,3.4,4.6,5.8
		c1.1,2.3,1.8,4.9,2.3,7.6c0.4,2.8,0.5,5.6,0.4,8.5c-0.2,2.9-0.4,5.7-0.8,8.4c-0.3,2.5-1.1,4.7-2.3,6.6c-1.2,1.9-1.9,4.3-2.3,7.1
		c0.2,0.2,0.3,0.2,0.3,0c-3.5,12-7.5,24-11.9,36.1c-4.4,12.1-8,24.6-10.9,37.6c0,0.3,0.1,0.4,0.3,0.3c0.2-0.2,0.3-0.4,0.5-0.8
		c-0.2,1.8-0.7,3.7-1.6,5.6c-0.9,1.9-1.5,3.7-1.6,5.4c1-0.8,1.5-1.8,1.6-2.8c0.1-1,0.5-2,1.4-3c0.2-0.2,0.1-0.4-0.1-0.6
		s-0.4-0.3-0.4-0.1c0.2-0.3,0.6-0.7,1.3-1c0.7-0.3,1.2-0.9,1.5-1.8c-0.2-0.2-0.5-0.3-1-0.3c0.2-1,0.5-1.8,0.9-2.4
		c0.4-0.6,0.6-1.4,0.6-2.4c0.3-0.2,0.5-0.1,0.6,0.1c0.1,0.3,0.3,0.4,0.6,0.4c-0.2-0.8,0.1-1.5,0.8-2c0.7-0.5,0.8-1.2,0.3-2l2-1.8
		c-0.7-0.2-1-0.5-1-1s0.4-0.6,1.3-0.3c0-0.3-0.3-0.5-1-0.5c0-0.5,0.3-0.7,0.8-0.6c0.5,0.1,0.8,0,1-0.4c0-0.3-0.2-0.5-0.6-0.5
		c-0.4,0-0.5-0.3-0.1-1c0.3,0,0.5,0.1,0.6,0.3c0.1,0.2,0.3,0.1,0.6-0.3c-0.5-0.7-0.7-0.9-0.5-0.6c0.2,0.3,0.5,0.2,1-0.1
		c0.3-1.5,1.1-3.5,2.4-6s2.4-4.9,3.4-7.3c-0.7,0-1.2,0.3-1.5,0.8c-0.3,0.5-0.6,1.1-0.9,1.9s-0.5,1.5-0.9,2.1
		c-0.3,0.7-0.8,1.1-1.3,1.3c0.3-1.3,0.9-2.5,1.8-3.6c0.8-1.1,1.4-2.4,1.8-3.9c0.5,0.3,0.9,0.5,1.1,0.4c0.3-0.1,0.4-0.3,0.5-0.8
		c0.1-0.4,0.2-0.8,0.4-1.1c0.2-0.3,0.5-0.6,1-0.8c-0.5-0.8-0.9-0.8-1.3,0.3c-0.3,1-0.7,1.7-1,2c-0.3-0.5-0.2-1.3,0.5-2.5
		c0.7-1.2,1.3-1.7,2-1.5c-0.2-0.8-0.1-1.4,0.3-1.8c0.3-0.3,0.7-0.9,1-1.8c0.2,0.3,0.1,0.7-0.1,1c-0.3,0.3-0.1,0.7,0.4,1
		c0.7-0.3,1-0.7,1-1c0-0.3,0.1-0.9,0.3-1.8c0.2-0.3,0.3-0.3,0.3,0.1c0,0.4,0,0.7,0,0.9c0.7-0.2,1-0.5,1.1-1.1c0.1-0.6,0-1.1-0.1-1.6
		c0.8,0,1.1-0.4,0.9-1.1s0.2-1,1.4-0.9c0.2-0.5,0.1-0.8-0.3-0.9c-0.3-0.1-0.4-0.3-0.3-0.6c0.7,0,1.2-0.1,1.5-0.3
		c-0.3-0.7-0.4-1.1-0.3-1.4c0.2-0.3,0.3-0.4,0.5-0.5c0.2-0.1,0.3-0.3,0.5-0.5c0.2-0.3,0.2-0.7,0-1.4c-1.3,2-2.3,3.5-2.8,4.5
		s-1.4,2.4-2.8,4.3c0.5-1.8,1.4-3.7,2.8-5.6c1.3-1.9,2.7-3.7,4-5.4c0.2,0.3,0.3,0.5,0.3,0.6c0,0.1-0.1,0.4-0.3,0.9
		c0.7,0.2,1,0,0.9-0.6c-0.1-0.6,0-0.9,0.4-0.9c0-0.3-0.1-0.5-0.4-0.4c-0.3,0.1-0.5,0-0.9-0.1c0.3-0.7,0.5-0.9,0.6-0.8
		c0.1,0.2,0.4,0.3,0.9,0.5c-0.2-1,0-2,0.6-2.9c0.6-0.9,1.3-1.8,2-2.8c0.8-0.9,1.5-1.8,2.3-2.6c0.8-0.8,1.4-1.8,1.9-2.8
		c0.3,0.2,0.3,0.4,0,0.6c-0.3,0.3-0.6,0.5-0.8,0.9c0.7-0.3,1.4-0.8,2.3-1.4c0.8-0.6,1-1.4,0.5-2.4c0.8,0.3,1.3,0.3,1.5-0.1
		c0.2-0.4,0.6-0.8,1.3-1.1c-0.7-0.3-0.8-0.7-0.3-1c0.5-0.3,0.8-0.8,0.8-1.3c0.3,0,0.5,0.1,0.4,0.3c-0.1,0.2,0,0.3,0.1,0.5
		c0.3,0,0.6-0.3,0.8-0.9c0.2-0.6,0.5-0.6,1-0.1c-0.3-1.2-0.3-2,0.3-2.6c0.5-0.6,1-1.1,1.6-1.6c0.6-0.5,1.1-1,1.5-1.6
		c0.4-0.6,0.5-1.4,0.4-2.4c2.3-1.8,4.2-3.8,5.5-5.8c1.3-2,2.8-4.3,4.3-6.8c0.2,0,0.6,0.2,1.3,0.5c-0.7-0.8-0.8-1.4-0.3-1.6
		s0.9-0.7,1.3-1.4c0.5,0,0.8,0.2,0.8,0.5c0.5-0.8,0.7-1.2,0.5-1.1c-0.2,0.1-0.1-0.3,0.3-1.1c0.5-0.3,0.7-0.3,0.6,0.3
		c-0.1,0.5,0.1,0.6,0.6,0.3c0.3-0.5,0.3-0.7-0.3-0.6c-0.5,0.1-0.6-0.1-0.3-0.6c0.3-0.3,0.5-0.3,0.6,0c0.1,0.3,0.4,0.3,0.9-0.3
		c0-0.2-0.3-0.3-1-0.3c0.3-0.3,0.7-0.5,1-0.6c0.3-0.1,0.4-0.4,0.3-0.9c0.3,0,0.5,0,0.5,0.1c0,0.1,0.2,0.1,0.5,0.1l1.3-1.3h-0.3v-0.3
		h0.3v-0.3h0.3l0.3-0.3h0.3c2.8-3,5.9-5.9,9.1-8.8c3.3-2.8,7.2-4.7,11.9-5.5c0.2,0,0.8,0.1,2,0.3c1.2,0.2,2.5,0.7,4,1.5
		c1.5,0.8,2.9,2,4.3,3.6C268.1,221.7,269,223.8,269.5,226.5z M75,378l0.5-0.5L75,378z M76.5,375.5c-0.3,0-0.5-0.1-0.5-0.4
		s-0.2-0.3-0.5-0.1c-0.2-0.3-0.2-0.5,0-0.6c0.2-0.1,0.3,0,0.3,0.4c0.5-0.2,0.8-0.5,0.8-1s0.3-0.8,0.8-0.8c0,0.3-0.1,0.6-0.4,0.9
		S76.5,374.6,76.5,375.5z M76.3,373c0,0.3-0.3,0.5-0.8,0.5C75.5,373,75.8,372.8,76.3,373z M77.8,367.2c-0.2-0.5-0.3-0.7-0.5-0.5
		c-0.2,0.2-0.4,0.1-0.8-0.3c0.3-0.7,0.7-0.8,1-0.3c0.3-0.8,0.6-1.7,0.9-2.6c0.3-0.9,0.2-2-0.1-3.1c0-0.2,0.1-0.3,0.3-0.3
		c0.3,0,0.5-0.1,0.5-0.3c0.3,1,0.3,1.9,0,2.8c-0.3,0.8-0.3,1.6,0,2.3c0,0.2-0.3,0.3-1,0.3c0.3,0.7,0.3,1.4-0.3,2.3
		c-0.2,0-0.3,0-0.3-0.1C77.5,367.3,77.6,367.2,77.8,367.2z M78.3,360.7c-0.3,0.5-0.4,1-0.3,1.4c0.2,0.4,0.1,0.8-0.3,1.1
		c-0.2-0.3-0.3-0.8-0.4-1.4C77.3,361.3,77.6,360.9,78.3,360.7z M78.8,357.5c-0.2,0-0.3-0.3-0.3-1c0-0.7,0.3-0.8,0.8-0.5
		c0,0.3-0.1,0.6-0.4,0.8C78.6,356.9,78.6,357.1,78.8,357.5z M80.5,356c-0.2,0.5-0.4,0.7-0.8,0.5c-0.3-0.2-0.4-0.5-0.3-1
		C79.8,356,80.2,356.1,80.5,356z M80,351.7c0.5-0.2,0.7-0.3,0.5-0.5c-0.2-0.2-0.3-0.6-0.3-1.3h-0.5c0-0.2,0.4-0.3,1.3-0.3
		c0,0.8,0,1.5,0,1.9C81,352,80.7,352.1,80,351.7z M82,341.2h-0.8c0-0.2,0-0.3,0.1-0.4c0.1-0.1,0.1-0.2,0.1-0.4c0.2,0,0.3,0,0.3,0.1
		c0,0.1,0.1,0.1,0.3,0.1V341.2z M81.3,346.5c0-0.8,0.3-1.3,0.8-1.3C82.3,346.1,82.1,346.5,81.3,346.5z M82.3,337
		c-0.5,0-0.6-0.2-0.3-0.6c0.3-0.4,0.7-0.7,1-0.9c0.2,0.5,0,0.8-0.5,0.8S81.9,336.5,82.3,337z M82.8,339c0.2-0.2,0.3-0.6,0.3-1.3
		c0.3,0,0.4,0.1,0.3,0.4c-0.2,0.3-0.1,0.5,0.3,0.6C83.5,338.9,83.3,339,82.8,339z M83.5,336.2c-0.2,0-0.3-0.4-0.3-1.3
		C84.3,335,84.3,335.4,83.5,336.2z M86.3,323c-0.3,0-0.5,0-0.6-0.1c-0.1-0.1-0.2-0.1-0.4-0.1V322h1V323z M85.5,324.7
		c0.3,0,0.5,0.3,0.4,0.8c-0.1,0.5-0.3,0.6-0.6,0.3c0-0.3,0-0.5,0.1-0.5C85.5,325.2,85.5,325.1,85.5,324.7z M86.5,316
		c0.3,0.2,0.4,0.4,0.1,0.8c-0.3,0.3-0.5,0.4-0.9,0.3c-0.2-0.3-0.1-0.5,0.1-0.5S86.3,316.3,86.5,316z M88.5,308
		c-0.3,0.2-0.5,0.5-0.4,0.9c0.1,0.4-0.2,0.5-0.9,0.4C87.3,308.4,87.7,308,88.5,308z M87.3,314c0.3-0.5,0.7-0.7,1-0.5
		c0,0.2,0,0.3-0.1,0.4c-0.1,0.1-0.1,0.2-0.1,0.4c-0.2,0-0.3,0-0.4-0.1C87.5,314,87.4,314,87.3,314z M89.5,305.2
		c0.7,0.3,0.8,0.6,0.3,0.8c-0.5,0.2-0.7,0.4-0.5,0.8c-0.2-0.2-0.4-0.3-0.8-0.3c0.2-0.3,0.4-0.5,0.6-0.6
		C89.4,305.8,89.5,305.6,89.5,305.2z M90.8,299.5c0.3,0,0.5,0.3,0.4,0.8c-0.1,0.5-0.3,0.6-0.6,0.3c0-0.3,0-0.5,0.1-0.5
		C90.7,300,90.8,299.8,90.8,299.5z M91.3,293.5c0.5,0.2,0.6,0.4,0.3,0.8c-0.3,0.3-0.6,0.3-0.8,0c0-0.3,0.1-0.5,0.3-0.4
		C91.2,293.9,91.3,293.8,91.3,293.5z M92.3,290.5c-0.3,0-0.5-0.2-0.4-0.6c0.1-0.4,0.2-0.7,0.4-0.9c0.3,0.2,0.4,0.4,0.1,0.6
		S92.1,290.1,92.3,290.5z M92.8,287.7c-0.3,0-0.4-0.2-0.3-0.6c0.2-0.4,0.5-0.5,1-0.1c-0.2,0.2-0.3,0.3-0.5,0.3
		C92.8,287.2,92.8,287.4,92.8,287.7z M92.8,291.7c0.3-0.3,0.4-0.4,0.3-0.3c-0.2,0.2-0.3,0.4-0.3,0.8c0,0.7-0.1,0.7-0.3,0.1
		C92.3,291.8,92.4,291.6,92.8,291.7z M94,282.5c-0.3-0.2-0.5-0.5-0.4-0.9c0.1-0.4,0.2-0.6,0.4-0.6c0.3,0.5,0.6,0.8,0.8,0.8
		c0.5,0.3,0.5,0.4,0,0.3C94.3,281.8,94,282,94,282.5z M116.8,282.2c0.2-0.7,0.4-1.3,0.6-1.8s0.5-0.9,0.9-1.3c0.5,0,0.5,0.4,0,1.3
		C117.8,281.3,117.3,281.9,116.8,282.2z M120.8,275.2c-0.3,0.3-0.6,0.8-0.8,1.4c-0.2,0.6-0.6,1-1.3,1.4c0.3-0.5,0.6-1,0.8-1.5
		C119.7,276,120.1,275.6,120.8,275.2z M124,269c-0.2,0.8-0.5,1.5-1,2s-0.9,1.1-1.3,1.8c-0.3-0.7-0.1-1.3,0.6-2
		C123.1,270.1,123.7,269.5,124,269z M124.3,268.2c0.2-0.8,0.6-1.8,1.3-3c0.7-1.2,1.4-2.2,2.3-3c-0.3,1.2-0.8,2.3-1.5,3.3
		C125.6,266.5,124.9,267.4,124.3,268.2z M130.8,256.5c0.3,0.5,0.2,1-0.4,1.6c-0.6,0.6-1,1.2-1.1,1.9c-0.3-0.7-0.2-1.3,0.4-1.9
		C130.2,257.5,130.6,257,130.8,256.5z M131.5,256c0-0.7,0.5-1.7,1.5-3.1c1-1.4,1.8-2.7,2.3-3.9c-0.2,1.2-0.7,2.4-1.5,3.6
		C132.9,253.9,132.2,255,131.5,256z M137.5,245.7c0.3,0.3,0.3,0.8,0,1.4c-0.3,0.6-0.8,0.9-1.3,0.9c0-0.5,0.1-0.9,0.4-1.3
		C136.9,246.4,137.2,246.1,137.5,245.7z M138,245.5V245h0.5c0.2,0,0.3,0.2,0.3,0.5H138z M144.3,235.7c0.2,0.8-0.1,1.6-0.8,2.3
		c-0.7,0.7-1.2,1.3-1.5,2c-0.2-0.7,0.1-1.3,0.8-2C143.4,237.3,143.9,236.6,144.3,235.7z M145.5,363c-0.8-0.2-1.2-1-1-2.6
		c0.2-1.6,0.4-2.6,0.8-3.1c0.3,0.5,0.5,1.3,0.5,2.5C145.8,360.9,145.7,362,145.5,363z M144.5,345.5c0.3-1,0.6-2.3,0.8-3.9
		c0.2-1.6,0.7-2.5,1.5-2.6c0-0.3-0.1-0.5-0.4-0.6c-0.3-0.1-0.5-0.3-0.9-0.6c0.5-0.3,0.8-0.8,0.8-1.5c0-0.7,0-1.4,0-2.3
		c0.5,0.2,0.8,0.1,0.9-0.1c0.1-0.3,0.4-0.5,0.9-0.9c-0.5,1.8-0.8,3.6-0.9,5.3c-0.1,1.7-0.7,3.1-1.9,4.3c0.3,0.5,0.5,0.9,0.5,1.1
		s0.1,0.8,0.3,1.6c-0.3,0.2-0.6,0.3-0.8,0.5C145.1,345.9,144.8,345.8,144.5,345.5z M146.5,234c-0.5,0-0.8,0.2-0.8,0.5
		c0,0.3-0.2,0.6-0.5,0.8c0-0.8,0.3-1.8,1-2.8c0.7-1,1.4-1.8,2.3-2.3c-0.3,0.7-0.8,1.3-1.4,1.9C146.5,232.7,146.3,233.3,146.5,234z
		 M151.3,225.2c0.7,0.7,0.5,1.4-0.5,2.3c-1,0.8-1.7,1.6-2,2.3c-0.2-0.7,0.1-1.4,0.9-2.1S150.9,226.1,151.3,225.2z M149.8,318
		c0.2-0.5,0.3-0.7,0.5-0.6c0.2,0.1,0.4,0.1,0.8,0.1C150.3,318.1,149.9,318.3,149.8,318z M150.3,317c0-0.7,0.2-1.1,0.6-1.3
		c0.4-0.2,0.7-0.4,0.9-0.8c0.5,0.7,0.4,1.1-0.4,1.3c-0.8,0.2-0.7,0.6,0.1,1.3c-0.3,0-0.5-0.1-0.6-0.4
		C150.8,316.9,150.6,316.8,150.3,317z M151,319c-0.2,0.3-0.4,0.3-0.8,0H151z M153,313.7c-0.3,0.2-0.7,0.3-1,0.4
		c-0.3,0.1-0.8,0.1-1.3,0.1c0.8-1.3,1.3-3,1.4-5.1c0.1-2.1,0.7-3.7,1.9-4.9c-0.2-0.7-0.3-1.4-0.3-2.1s0.3-1.3,0.8-1.6
		c0.2,0.5,0.4,0.7,0.6,0.5c0.3-0.2,0.5-0.4,0.9-0.8c0.2,0.5,0,0.9-0.5,1.3c-0.5,0.3-0.7,0.9-0.5,1.8c-0.2-0.2-0.3-0.3-0.4-0.5
		c-0.1-0.2-0.3-0.3-0.6-0.3c0,0.5,0.2,0.8,0.6,0.8c0.4,0,0.5,0.3,0.4,0.8c-0.3-0.2-0.5-0.2-0.5-0.1c0,0.1,0,0.3,0.1,0.5
		c0.1,0.3,0.1,0.5,0,0.6c-0.1,0.2-0.4,0.2-0.9,0c0.7,1.3,0.6,2.7-0.1,4.1C152.9,310.5,152.7,312.1,153,313.7z M158.5,217.5
		c-1,1-1.8,2.1-2.5,3.4c-0.7,1.3-1.7,2.1-3,2.6c1-1,1.8-2,2.5-3.1C156.2,219.3,157.2,218.3,158.5,217.5z M156.5,296.5
		c0,0.2-0.1,0.3-0.3,0.3c0.2,0.3,0.3,0.6,0.5,0.8c0.2,0.2,0.2,0.4,0,0.8c-0.5,0.3-0.8,0.4-0.9,0.3c-0.1-0.2-0.3-0.1-0.6,0.3
		c0.2,0.2,0.3,0.3,0.5,0.3c0.2,0,0.3,0.2,0.3,0.5c-0.3,0.2-0.6,0.2-0.8,0c-0.2-0.2-0.3-0.3-0.5-0.3c0.3-0.7,0.5-1.2,0.5-1.6
		C155.3,297.2,155.7,296.8,156.5,296.5z M157.8,295.2c0,0.3-0.1,0.5-0.3,0.4c-0.2-0.1-0.3,0-0.5,0.1c0.3,0.3,0.5,0.6,0.5,0.8
		c-0.8,0.2-1.1-0.1-0.8-0.8C157.1,295.1,157.4,294.9,157.8,295.2z M159.3,217.2c-1-0.2-1-0.7,0.1-1.5c1.1-0.8,1.8-1.7,2.1-2.5
		c0.3,0.8,0,1.6-1,2.3C159.5,216.1,159.1,216.7,159.3,217.2z M159.3,290.2c-0.5,0-0.7-0.2-0.6-0.6c0.1-0.4,0.4-0.6,0.9-0.6
		c0,0.3-0.1,0.5-0.3,0.6C159.1,289.7,159.1,289.9,159.3,290.2z M160,284.5c0.2,0.3,0.1,0.5-0.1,0.6c-0.3,0.1-0.4,0.3-0.4,0.6
		c-0.3-0.2-0.4-0.5-0.3-0.9C159.4,284.4,159.7,284.3,160,284.5z M162.8,277.7c0.3,0.3,0.3,0.7-0.1,1c-0.4,0.3-0.9,0.3-1.4,0
		c-0.2-0.5-0.1-0.7,0.1-0.6c0.3,0.1,0.5,0.2,0.6,0.4L162.8,277.7z M163,212.5c-0.3,0.3-0.5,0.3-0.4-0.3c0.1-0.5,0.3-0.7,0.6-0.5
		c0.3,0.2,0.4,0.3,0.1,0.3S163,212.1,163,212.5z M163.3,275.7c0.3,0.2,0.4,0.3,0.3,0.4c-0.2,0.1-0.3,0.1-0.5,0.1
		c0,0.2,0.1,0.3,0.3,0.3c-0.3,0.5-0.5,0.5-0.6,0C162.5,276,162.8,275.7,163.3,275.7z M164.8,210.2c-0.3,0.3-0.5,0.6-0.6,0.9
		c-0.1,0.3-0.4,0.4-0.9,0.4c0.3-0.3,0.5-0.6,0.6-0.9C164,210.4,164.3,210.2,164.8,210.2z M163.8,274c0.3,0,0.5,0.3,0.5,0.9
		c0,0.6-0.3,0.7-0.8,0.4c0-0.3,0.1-0.5,0.3-0.6C163.9,274.5,163.9,274.3,163.8,274z M164,269.2c0-0.5,0.3-0.8,1-0.8
		c-0.2,0.2-0.3,0.3-0.4,0.5C164.5,269.1,164.3,269.2,164,269.2z M250.8,225.2c0.3-1,1-1.7,1.9-2.1c0.9-0.4,1.2-1.4,0.9-2.9
		c-0.5,0.3-1.2,0.7-2.1,1.1c-0.9,0.4-1.8,0.9-2.6,1.4c-0.8,0.5-1.5,1-2.1,1.4c-0.6,0.4-0.9,0.8-0.9,1.1c-0.7,0.8-1.3,1.1-2,0.8
		c-0.3,0.2-0.4,0.4-0.1,0.6s0.2,0.5-0.1,0.6c-0.5-0.3-1.2-0.2-2,0.5c-0.8,0.7-1.1,1.2-0.8,1.5l-8,7.3c-0.2,0.8-0.9,1.9-2.1,3.3
		c-1.3,1.3-2,1.8-2.4,1.5c-1.5,1.8-3.2,4-5.1,6.5c-1.9,2.5-3.8,5-5.6,7.5c-1.8,2.5-3.7,4.8-5.5,6.9c-1.8,2.1-3.4,3.6-4.8,4.6
		c-0.5,0.5-0.7,1-0.5,1.6c0.2,0.6-0.1,1.3-0.8,2.1c-0.3,0.2-0.5,0-0.6-0.4c-0.1-0.4-0.2-0.5-0.4-0.1c0.3,0.2,0.3,0.4-0.1,0.8
		c-0.4,0.3-0.4,0.5,0.1,0.5c-0.2-0.2-0.1-0.3,0.3-0.5c0.3-0.2,0.5-0.1,0.5,0.3c-4,5.3-7.9,11.2-11.6,17.6
		c-3.8,6.4-7.3,13.1-10.8,20.1c-3.4,7-6.7,14.2-9.8,21.5c-3.1,7.3-6,14.5-8.6,21.5c0.8-0.8,1.4-1.5,1.8-2.1c0.3-0.6,0.8-1.5,1.3-2.9
		c1-0.3,1.8-1,2.5-2.1c0.7-1.1,1.2-2.3,1.6-3.6c0.4-1.3,0.8-2.7,1.3-4.1c0.4-1.4,0.9-2.6,1.4-3.6c-0.3-0.3-0.6-0.4-0.8-0.3
		c-0.2,0.2-0.3,0.2-0.5,0c0.3-0.3,0.6-0.4,0.9-0.3c0.3,0.2,0.6,0.1,1.1-0.3c0-0.7,0-1.3,0.1-1.9c0.1-0.6,0.1-1.1,0.1-1.6
		c0,0.2-0.1,0.3-0.3,0.3c-0.2,0-0.3-0.2-0.3-0.5c0.3,0,0.5-0.3,0.5-0.8c0.3,0.2,0.5,0.4,0.6,0.8c0.1,0.3,0.4,0.4,0.9,0.3
		c2.8-6.5,5.6-12.4,8.3-17.8c2.7-5.3,5.8-10.9,9.3-16.8c-0.2-0.7-0.1-1.1,0.1-1.3c0.3-0.2,0.3-0.6,0.1-1.3
		c5.3-7.2,10.6-14.6,15.9-22.4s10.8-14.8,16.6-21.1c3.3-4.3,6.8-8.5,10.4-12.6C241.5,231.8,245.8,228.2,250.8,225.2z M167.5,270
		l-0.5,0.5L167.5,270z M170,326l-0.5,0.5L170,326z M170.3,340.7c0.2-0.3,0.2-0.3,0.1,0.3c-0.1,0.5,0,0.9,0.4,1.3
		c-0.3-0.3-0.5-0.3-0.5,0c-0.3,0-0.5-0.3-0.5-0.9C169.8,340.8,169.9,340.6,170.3,340.7z M173.3,320.2c-0.3,0.7-0.6,1.2-0.8,1.6
		c-0.2,0.4-0.4,0.8-0.8,1.1c0.3-0.5,0.5-1,0.5-1.6C172.3,320.8,172.6,320.4,173.3,320.2z M175,317c-0.5,0.3-0.8,0.8-0.8,1.5
		c0,0.7-0.4,1-1.3,1c0.3-0.3,0.5-0.8,0.6-1.5C173.7,317.3,174.2,317,175,317z M174.5,330.7c0.3,0.2,0.4,0.5,0.1,1s-0.5,0.7-0.9,0.5
		c0.2-0.3,0.3-0.6,0.5-0.8C174.4,331.3,174.5,331.1,174.5,330.7z M176.8,312.2c0.2,0.7,0,1.5-0.5,2.5s-1.1,1.7-1.8,2
		c0.3-1,0.7-1.8,1.1-2.5C176,313.6,176.4,312.9,176.8,312.2z M176,207.5c-0.2,0-0.3,0.1-0.3,0.3L176,207.5z M177.3,312
		c-0.2-1.3,0.3-2.7,1.3-4c1-1.3,1.7-2.7,2-4c0.2,1.3-0.2,2.7-1.1,4C178.5,309.3,177.8,310.6,177.3,312z M211.5,256.5
		c-0.5-0.2-0.6-0.3-0.3-0.5c0.3-0.2,0.5-0.3,0.5-0.5c0.3,0,0.4,0.1,0.1,0.4S211.5,256.3,211.5,256.5z M212,373.7
		c-0.5-0.2-0.7-0.3-0.5-0.5c0.2-0.2,0.3-0.5,0.3-1c0.3,0,0.4,0.2,0.3,0.5C211.8,373.1,211.8,373.4,212,373.7z M212.5,367.5l-0.3,0.5
		C212.4,367.8,212.5,367.6,212.5,367.5z M212.8,254.7c-0.3,0.2-0.4,0-0.3-0.4c0.2-0.4,0.4-0.5,0.8-0.4c0.2,0.3,0.1,0.5-0.1,0.4
		C212.9,254.3,212.8,254.4,212.8,254.7z M214.3,253c-0.3,0.3-0.3,0.1,0-0.8c0.3-0.8,0.7-1.2,1-1c0,0.3-0.2,0.6-0.5,0.9
		C214.4,252.4,214.3,252.6,214.3,253z M214.5,350l-0.3,0.5C214.4,350.3,214.5,350.1,214.5,350z M216.8,400.5l0.5,0.5L216.8,400.5z
		 M219,246.7c-0.3,0-0.4-0.3-0.1-0.8s0.5-0.7,0.9-0.5c0,0.3-0.1,0.5-0.3,0.6C219.3,246.2,219.2,246.4,219,246.7z M220.8,314.2
		c0.5,0.2,0.6,0.4,0.4,0.6s-0.5,0.3-0.9,0.1v-1c0.2,0,0.3,0.2,0.3,0.5C220.7,314.6,220.8,314.6,220.8,314.2z M222.8,241.5
		c0.2,0.3,0,0.8-0.4,1.4c-0.4,0.6-0.9,1-1.4,1.1c0.3-0.5,0.6-0.9,0.9-1.3C222.1,242.4,222.4,242,222.8,241.5z M227.8,296.7h0.5
		H227.8z M230.8,287.7c0.3,0,0.3-0.1,0-0.3c-0.3-0.2-0.4-0.4-0.3-0.8c0.7-0.3,1-0.2,0.9,0.5c-0.1,0.7-0.2,1.1-0.4,1.3
		c-0.2-0.2-0.5-0.3-1-0.3C230,287.4,230.3,287.2,230.8,287.7z M231.5,284c0.3,0,0.5,0.2,0.4,0.6c-0.1,0.4-0.3,0.6-0.6,0.6
		c0-0.3,0-0.5,0.1-0.6C231.5,284.5,231.5,284.3,231.5,284z M239.8,260.2c0.5-0.3,0.8-0.3,0.8,0c0,0.3,0.2,0.5,0.5,0.5
		c0,0.3,0,0.5-0.1,0.4c-0.1-0.1-0.1-0.2-0.1-0.4c-0.3,0-0.6,0.3-0.8,0.8C239.8,261.3,239.8,260.9,239.8,260.2z M240.8,262
		c0.2,0,0.3,0.1,0.3,0.3v0.8c-0.3-0.3-0.7-0.5-1-0.5c0.2-0.2,0.3-0.2,0.5-0.1C240.7,262.4,240.8,262.3,240.8,262z M240.8,229.2
		c0.3-0.2,0.5-0.4,0.6-0.8c0.1-0.3,0.4-0.5,0.9-0.5L240.8,229.2z M241,260c0.7-0.5,0.9-1,0.8-1.5c-0.2-0.5,0.2-0.9,1-1.3
		c0,0.5-0.3,0.8-0.8,0.8c0,0.3,0.1,0.5,0.3,0.4c0.2-0.1,0.3,0,0.3,0.4C242.5,259.2,242,259.6,241,260z M243.8,253.2
		c-0.3,0.3-0.6,0.7-0.9,1.1c-0.3,0.4-0.6,0.8-1.1,1.1c0.5-0.3,0.7-0.8,0.6-1.3C242.3,253.7,242.8,253.4,243.8,253.2z M247.8,297.2
		c0.5,0,0.6,0.1,0.3,0.3c-0.3,0.2-0.4,0.4-0.3,0.8c-0.2,0-0.3-0.2-0.3-0.5C247.5,297.6,247.6,297.4,247.8,297.2z M251,288.5
		c0,0.3-0.3,0.8-0.8,1.3L251,288.5z M255,278.7c0.2-0.2,0.3-0.4,0.3-0.6s0.2-0.3,0.5-0.1c-0.2,0.2-0.3,0.4-0.3,0.6
		S255.3,278.9,255,278.7z"/>
</g>
<g>
	<g>
		<path class="st1" d="M298.6,246.3c0-0.2-0.3-0.3-0.8-0.3c-0.2-0.3-0.1-0.5,0.3-0.5c0.3,0,0.6-0.1,0.8-0.3c0-0.3,0-0.6-0.1-0.8
			c-0.1-0.2-0.1-0.4-0.1-0.8c0.9,0,1.2-0.3,1-0.9c-0.2-0.6-0.3-1.2-0.3-1.7h0.5c0-0.3-0.2-0.5-0.5-0.5c0.5-0.3,0.7-1,0.5-1.8
			c0.3,0,0.6,0,0.8-0.1c0.2-0.1,0.4-0.1,0.8-0.1c-0.2-0.5-0.2-0.9,0-1.2c0.2-0.3,0.3-0.6,0.3-1.2c-0.3,0-0.5,0.2-0.4,0.5
			c0.1,0.3-0.1,0.4-0.6,0.3c0.3-0.3,0.5-0.6,0.4-0.6c-0.1-0.1-0.2-0.3-0.4-0.6c0.3-0.5,0.7-1.1,1.2-1.8c0.4-0.7,0.5-1.3,0.1-1.8
			c1.4-1.2,2.2-2.9,2.5-5.2c0.3-2.3,1.1-4.1,2.5-5.5c1-3.5,2.1-6.9,3.3-10.4c1.1-3.5,2.4-6.8,3.8-10.1c-0.9-1.6-0.9-2.8,0-3.6
			c1.2,0.5,2.2,0.3,2.9-0.8c2.6-0.5,5.2,0.3,7.8,2.6c0.3,0.3,0.6,0.8,0.8,1.3c0.2,0.5,0.5,1,1,1.3c0.9,0.5,1.6,0.9,2.2,1
			c0.6,0.2,1.3,0.7,2,1.6c0.3,0.5,0.7,1.2,1,1.9c0.3,0.8,0.4,1.2,0.3,1.2c1.2,1.6,1.5,3.2,0.9,4.8c-0.6,1.6-1.1,3.3-1.4,4.8
			c-1.6,3.5-2.9,7.1-4.2,10.9c-1.2,3.8-2.6,7.5-4.2,10.9c-0.3,2.3-0.7,4.5-1.2,6.8c-0.4,2.3-1.3,4.2-2.7,6c0,1.2-0.3,2.7-1,4.5
			c-0.7,1.8-1.4,3.7-2.2,5.7c-0.8,2-1.5,4-2.2,6c-0.7,2-1.2,3.7-1.6,5.1c0,0.2-0.2,0.7-0.5,1.6c-0.3,0.9-0.6,1.7-0.8,2.6
			c-0.3,1.4-0.5,2.8-0.5,4.3c0,1.5-0.5,2.6-1.6,3.3c0,0.5,0.1,1.1,0.3,1.8c0.2,0.7-0.1,1-0.8,1c0,0.9-0.1,1.5-0.3,1.8
			c-0.2,2.4-0.6,4.4-1.2,5.9c-0.6,1.5-0.9,3.4-0.9,5.9c0.9-0.2,1.6-0.3,2.1-0.3c0.5,0,1-0.2,1.6-0.5c0.2,0.3,0.5,0.5,0.9,0.4
			c0.4-0.1,0.9-0.1,1.4-0.1c0.7-0.2,1.3-0.3,2-0.5c0.6-0.2,1.2-0.1,1.7,0.3c3.8-0.9,8.1-1.5,12.7-2c4.7-0.4,9-0.7,13-0.9
			c2.4,0,4.7,0,6.8-0.1c2.1-0.1,4.2-0.3,6.2-0.6c0.5,0.3,0.9,0.4,1,0.3c0.2-0.2,0.5-0.3,1-0.5c0.3,0,0.5,0.1,0.4,0.3
			c-0.1,0.2,0,0.3,0.4,0.3c0.3,0.2,0.5,0.1,0.5-0.1c0-0.3,0.2-0.4,0.5-0.4c0.3,0.2,1.4,0.1,3.1-0.1c1.7-0.3,2.9-0.4,3.6-0.4
			c0.5-1.2,1-2.6,1.4-4.3c0.4-1.6,0.6-3,0.4-4c1-1,1.6-2.5,1.8-4.3c0.2-1.8,0.7-3.3,1.6-4.5c-0.2-0.2-0.3-0.2-0.4-0.1
			c-0.1,0.1-0.1,0-0.1-0.4c0.7-1.7,1.2-3.5,1.6-5.2c0.3-1.7,1-3.5,1.8-5.2c-0.2-0.2-0.4-0.2-0.6,0c-0.3,0.2-0.4,0-0.4-0.5
			c1.4-0.9,2.1-2,2.2-3.5c0.1-1.5,0.6-2.8,1.4-4c-0.7-0.3-1-0.1-1,0.6s-0.3,1.1-1,0.9c-0.2-0.5,0-0.8,0.4-0.9
			c0.4-0.1,0.5-0.4,0.1-0.9c1.4,0,2-0.5,2-1.4c-0.1-1,0.2-1.6,0.9-2v-1c-0.3,0-0.5-0.1-0.5-0.3c0-0.2-0.1-0.3-0.3-0.3
			c0-0.3,0.3-0.3,0.8,0.3c0.2-0.9,0.6-1.9,1.2-3.1c0.6-1.2,0.8-2.3,0.7-3.1c0.5-0.3,1-1.2,1.3-2.6c0-0.3-0.2-0.4-0.5-0.3
			c-0.3,0.2-0.4,0.4-0.3,0.8c-0.5-0.3-0.5-0.6,0.1-0.8c0.6-0.2,0.5-0.3-0.4-0.3c-0.2-0.3,0-0.5,0.4-0.5c0.4,0,0.6,0.2,0.4,0.5
			c0.2-0.5,0.4-1,0.7-1.3c0.3-0.3,0.5-0.8,0.7-1.3c-0.2,0.3-0.5,0.5-0.9,0.5c-0.4,0-0.5,0.3-0.1,0.8c-0.3-0.3-0.3-0.7,0-1.2
			c0.3-0.4,0.5-0.8,0.5-1.2h0.3v-1.6c0.7-0.2,1.1-0.6,1.3-1.2c0.2-0.6,0.5-1.1,1-1.4c-0.3-0.2-0.6-0.1-0.8,0.1
			c-0.2,0.3-0.4,0.2-0.8-0.1c0.7-0.3,1.1-1,1.2-2c0.1-1,0.6-1.6,1.4-1.9c0-0.3-0.1-0.6-0.3-0.6c-0.2-0.1-0.2-0.3,0-0.7
			c0.3,0,0.5,0.2,0.5,0.5c0.3-0.2,0.5-0.3,0.4-0.5c-0.1-0.2,0-0.3,0.4-0.5c-0.3-0.3-0.5-0.3-0.5,0.1c0,0.4-0.2,0.5-0.5,0.1
			c-0.2-0.3-0.1-0.6,0.3-0.6c0.3-0.1,0.6-0.2,0.8-0.4c0-0.5,0-0.6-0.1-0.4c-0.1,0.3-0.3,0.3-0.6,0.1c2.4-6.1,4.9-12,7.5-17.9
			c2.6-5.9,5-12,7.3-18.2c-0.2-0.3-0.3-0.6-0.5-0.9c-0.2-0.3-0.3-0.6-0.5-1.2c0.9,0,1.5-0.3,1.8-0.9c0.3-0.6,1-1,1.8-1.2l0.8-3.6
			c0.5,0,0.9,0.2,1.2,0.7c0.3,0.4,0.7,0.6,1.4,0.4c-0.5,0.5-0.5,0.8,0.1,0.8c0.6,0,0.8,0.3,0.7,0.8c0.3,0.2,0.6,0.1,0.6-0.3
			c0.1-0.3,0.4-0.4,0.9-0.3c-0.2,0.3-0.2,0.6,0,0.8c0.2,0.2,0.3,0.4,0.3,0.8c1-0.2,1.9-0.1,2.6,0.3c0,0.3,0,0.6-0.1,0.8
			c-0.1,0.2,0,0.4,0.1,0.8c1.7-1,3-0.9,3.8,0.4c0.8,1.3,1.7,2.2,2.7,2.7c0.3,1.4,0.7,2.6,1,3.8c0.3,1.1,0.7,2.4,1,3.8
			c-1.4,3.1-2.6,6.3-3.6,9.6c-1,3.3-2.1,6.6-3.1,9.9c-3.6,6.1-6.6,12.7-9,19.9c-2.3,7.2-5.1,14.1-8.2,20.7c-1.4,5.9-3,11.7-4.9,17.3
			c-1.9,5.6-3.5,11.5-4.7,17.5c1.9,0.9,3.7,1.8,5.3,2.9c1.6,1,3.4,2,5.3,2.9c0.5,1.6,1.3,2.8,2.2,3.8c1,1,1.9,1.9,2.7,3
			c0.2,0.3,0.1,0.5-0.1,0.4c-0.3-0.1-0.4,0-0.4,0.4c1.7,1,2.3,2.5,1.8,4.4c-1.7,0.3-3.4,0.3-5.1-0.3c-1.6-0.5-3.3-1.2-4.9-1.9
			c-1.6-0.8-3.3-1.5-4.9-2.1c-1.6-0.6-3.4-0.9-5.3-0.9c-2.4,5.5-4.3,11.6-5.7,18.2c-1.4,6.6-3,12.7-4.9,18.2c-0.2,0-0.4,0.2-0.8,0.5
			c-0.5,5.4-1.6,10.5-3.4,15.3c-1.7,4.9-3.2,9.8-4.4,14.8c-0.3,2.9-0.7,5.9-1,8.7c-0.3,2.9-1,5.5-2.1,7.9c0.2,0.3,0.3,0.8,0.3,1.3
			c0,0.3,0.2,0.5,0.5,0.4c0.3-0.1,0.4,0,0.3,0.4c-0.9,0.5-1.2,1.6-0.9,3.4c0.3,1.7,0,3-0.6,3.9c-0.7-0.3-1-0.3-1,0.3
			c0,0.5-0.3,0.8-1,0.8c0,0.3,0.2,0.5,0.5,0.5c-0.7,0.7-1.4,0.9-2.2,0.5c-0.8-0.3-1.6-0.3-2.5,0.3c-0.2-0.2-0.3-0.4-0.3-0.8
			c-0.2,0-1-0.3-2.6-1c-1.6-0.7-2.7-1.2-3.4-1.6c-0.3,0-0.5-0.2-0.5-0.5c0-0.2,0.2-0.2,0.5-0.1c0.3,0.1,0.4,0,0.3-0.4
			c-1.9-5-2.5-10.5-1.8-16.4c0.7-5.9,1.6-11.2,2.6-15.9c1.4-8.7,3.3-17.5,5.6-26.5c2.3-9,4.5-17.9,6.6-26.8
			c-0.3-0.7-0.3-1.6,0.1-2.7c0.4-1.1,0.7-2.2,0.7-3.3c-0.3,0-0.5,0.2-0.5,0.5c0,0.3-0.1,0.7-0.3,1c-0.3-0.2-0.4-0.4-0.3-0.8
			c0.2-0.3,0.3-0.7,0.3-1c-6.8,0.5-13.9,1-21.5,1.6s-14.9,1.5-22.2,2.9c-2.6,0.5-5.1,1.1-7.5,1.7c-2.4,0.6-4.9,1.3-7.3,2.2
			c-0.3,0-0.5-0.2-0.5-0.5c-0.3,0.3-0.6,0.5-0.8,0.5c-1.4,6.4-3.1,13.2-5.1,20.3c-2,7.1-3.3,14.6-4,22.4c-0.5,0.3-0.8,1-0.9,1.8
			c-0.1,0.9,0,1.5,0.4,1.8c-0.7,1.2-1,2.7-0.9,4.4c0.1,1.7-0.1,3.3-0.6,4.7c0.3,0.2,0.5,0.7,0.4,1.7c-0.1,1-0.4,1.5-0.9,1.7
			c0.3,1,0.3,2-0.3,3c-0.5,1-0.4,1.9,0.3,2.7c-1,4.7-1.8,9.4-2.3,14.3c-1,0.9-1.6,2.3-1.8,4.4c-0.2,2.1-1.1,3.2-2.9,3.4
			c-0.3-0.2-0.7-0.3-1-0.4c-0.3-0.1-0.6,0-0.8,0.4c-0.9-0.3-1.8-0.6-2.7-0.8c-1-0.2-1.6-0.8-2-1.8c-0.2,0.2-0.3,0.5-0.3,1
			c-0.9-0.5-1.7-1.3-2.5-2.2c-0.8-1-1.7-1.1-2.7-0.4c-0.3-1-0.8-1.6-1.3-1.6c0-0.7-0.1-1.6-0.4-2.7c-0.3-1.1,0-1.9,0.6-2.2
			c-0.5-4.2-0.3-9.1,0.8-14.7c1-5.6,1.3-11.2,0.8-16.8c0.5,0,0.7-0.3,0.6-1c-0.1-0.7-0.1-1.2-0.1-1.6c-0.3,0-0.5,0.3-0.5,0.8
			c-0.3-1-0.3-2.4,0-4.2c0.5,0.2,0.6,0.6,0.4,1.3c-0.3,0.7-0.2,1.3,0.1,1.8c0-1.2,0.2-2.6,0.5-4.2c0.3-1.6,0.3-2.8,0-3.6
			c0.7-2.1,1.2-4.6,1.4-7.4c0.3-2.9,1.1-5,2.5-6.4c-0.3-2.8,0.1-5.6,1.3-8.6c1.2-2.9,2-6.2,2.3-9.6c-2.1-0.7-4.6-1-7.7-0.8
			c-3,0.2-6.1,0.2-9.1,0.1c-3-0.1-5.8-0.6-8.3-1.4c-2.5-0.9-4.2-2.6-5.1-5.2c-0.3-0.2-0.7-0.4-1-0.8c-0.3-0.3-0.8-0.5-1.3-0.5
			c-0.2-0.3-0.3-0.7-0.4-1c-0.1-0.3-0.3-0.7-0.6-1c0.2-0.3,0.2-0.7,0-1c-0.2-0.3,0-0.4,0.5-0.3c-0.5-1.2-1.2-2.4-2.1-3.5
			c-0.9-1.1-0.9-2.4,0-3.8c0.3,0.3,0.6,0.4,0.9,0.3c0.3-0.2,0.6-0.3,0.9-0.5v1.8l0.8-0.5c0.3,0,0.3-0.1,0-0.4
			c-0.3-0.3-0.3-0.4,0.3-0.4c0,0.3,0.1,0.5,0.4,0.5c0.3,0,0.3,0.3,0.1,0.8c2.3,1,4.9,1.8,7.9,2.2c3,0.4,6.1,0.6,9.2,0.6
			s6.3-0.1,9.5-0.3c3.2-0.2,6.2-0.3,9-0.5c1.2-2.6,2.1-5.4,2.6-8.5c0.5-3,1.2-6,2.1-9c0-0.3-0.2-0.5-0.5-0.4
			c-0.3,0.1-0.6,0.1-0.8,0.1c0.3-0.3,0.5-0.7,0.5-1c0-0.3,0.1-0.7,0.3-1c0.7,0.2,0.8,0.4,0.3,0.8c-0.5,0.3-0.4,0.6,0.3,0.8
			c1.2-3.5,2.2-6.9,3-10.4c0.8-3.5,1.8-6.9,3-10.4c0-0.3-0.2-0.5-0.5-0.4c-0.3,0.1-0.3,0.3,0,0.6c-0.3-0.3-0.3-0.7,0-1
			c0.3-0.3,0.7-0.5,1-0.5c0.2-1,0.7-3.1,1.7-6.1c1-3,1.9-5.9,2.7-8.4c0-0.3-0.1-0.5-0.3-0.4c-0.2,0.1-0.3,0-0.3-0.1
			c0.2-0.3,0.4-0.7,0.6-0.9c0.3-0.3,0.4-0.6,0.4-1.2c-0.2,0.2-0.4,0.3-0.6,0.3c-0.3,0-0.5,0.1-0.7,0.3c0.3-0.2,0.6-0.4,0.7-0.6
			C298.1,246.2,298.3,246.2,298.6,246.3z M268,387.8h-0.3c0-0.2,0-0.3-0.1-0.3c-0.1,0-0.1-0.1-0.1-0.3h0.5V387.8z M268.5,320.7
			c0-0.2,0-0.3-0.1-0.3c-0.1,0-0.1-0.1-0.1-0.3h0.5C268.7,320.7,268.7,320.9,268.5,320.7z M269,371.9c0.3,0,0.5,0.2,0.4,0.6
			c-0.1,0.4-0.3,0.6-0.6,0.4c0-0.3,0-0.6,0.1-0.6C269,372.2,269,372.1,269,371.9z M269.8,363.3c0.2-0.3,0.3-0.2,0.3,0.4
			c0,0.6-0.2,0.8-0.5,0.6c0-0.3-0.1-0.6-0.3-0.8C269.6,363.6,269.8,363.5,269.8,363.3z M272.4,395.1c0.7-3.3,1.1-6.9,1.3-10.8
			c0.2-3.9,0.3-7.8,0.5-11.7c0.2-3.9,0.5-7.8,0.9-11.7c0.4-3.9,1.2-7.6,2.2-11.1c0.2-0.3,0.1-0.5-0.3-0.4c-0.3,0.1-0.4,0-0.3-0.4
			c0.9-2.4,1.5-5.1,1.8-7.9c0.3-2.9,1.2-5.4,2.6-7.7c-0.2-1.9,0.3-4.2,1.3-6.8c1-2.6,1.4-4.9,1-7c-0.3,0.2-0.8,0.3-1.3,0.3
			c0,0.5-0.2,0.9-0.5,1c0-0.2,0-0.3,0.1-0.4c0.1-0.1,0.1-0.2,0.1-0.4c-0.9,0.2-1.4,0.6-1.7,1.4c-0.3,0.8-0.5,1.7-0.8,2.7
			c-0.3,1-0.5,2.1-0.6,3.1c-0.2,1-0.5,1.9-1,2.6c0,0.3,0.1,0.5,0.3,0.5c0.2,0,0.3,0.1,0.3,0.3c-0.7,0.7-1.3,2.2-1.8,4.6
			c-0.5,2.3-0.6,3.9-0.3,4.8c-0.3,0.3-0.5,0.4-0.5,0.3c0-0.2-0.2-0.3-0.5-0.3c-0.3,3.6-1,7.4-2,11.2c-1,3.8-1,7.6-0.1,11.4
			c-0.5,0.2-0.5,0.7,0,1.6c0.5,0.9,0.6,1.6,0.3,2.3c0-0.9-0.2-1.2-0.5-1c-0.3,0.2-0.7,0.1-1-0.3c0.2,0.9,0.2,1.6,0.1,2.1
			c-0.1,0.5,0,1.2,0.1,2.1h0.5c-0.3,0.3-0.4,0.5-0.1,0.5c0.3,0,0.3,0.3,0.1,0.8h-1c-0.2,4-0.5,7.6-0.9,10.9
			c-0.4,3.3-0.7,6.9-0.9,10.9c0,0.3,0.1,0.5,0.3,0.4c0.2-0.1,0.3,0,0.3,0.1c0.2,0.3,0.1,0.5-0.3,0.4c-0.3-0.1-0.4,0-0.3,0.4
			c0.3,0,0.6-0.1,0.7-0.4c0.1-0.3,0.4-0.4,0.9-0.4c0-0.3-0.1-0.7-0.3-1.2c-0.2-0.4,0-0.7,0.5-0.9c0.2,0.7,0.3,1.4,0.3,2.2
			C271.9,394.1,272,394.7,272.4,395.1z M272.9,341.2h-0.8v-0.8h0.8V341.2z M276,384.4v-1h-0.5c0.2,0.2,0.3,0.5,0.3,1H276z
			 M277.1,372.4v-0.8h-0.5c0,0.2,0,0.3,0.1,0.4c0.1,0.1,0.1,0.2,0.1,0.4H277.1z M277.6,368.5c-0.3-0.7-0.3-1.3,0.1-1.8
			c0.4-0.5,0.3-1-0.4-1.3c0.2,0.5,0.1,1.1-0.3,1.7C276.7,367.7,276.9,368.2,277.6,368.5z M278.1,362c-0.3-0.3-0.4-0.7-0.1-1
			c0.3-0.3,0.2-0.7-0.1-1c-0.3,0-0.5,0.4-0.5,1.2C277.3,361.9,277.6,362.2,278.1,362z M278.6,358.4c0.2-0.7-0.1-1.2-0.8-1.6
			c0.2,0.3,0.2,0.7,0,1c-0.2,0.3,0,0.6,0.5,0.8C278.4,358.3,278.4,358.2,278.6,358.4z M278.1,356.6c0.3,0,0.6-0.2,0.6-0.5
			c0.1-0.3,0-0.5-0.1-0.5c-0.2,0.3-0.3,0.5-0.5,0.5C277.9,356.1,277.9,356.2,278.1,356.6z M278.6,354.2c0.3-0.9,0.7-2,1-3.4
			c0.3-1.4,0.3-2.5,0-3.4c-0.3,1-0.6,2.2-0.8,3.5C278.7,352.3,278.6,353.4,278.6,354.2z M283,333.2c1.2-1.9,2.1-4.2,2.6-6.8
			s1-4.9,1.6-6.8c-1,0.2-1.6,0.8-1.6,1.9c0,1.1-0.3,2-0.8,2.5c-0.3,3.5-1,6.7-2.1,9.6c-1,2.9-1.6,6.3-1.8,10.1
			c-1.2,1.2-1.6,2.5-1,3.9l0.3-0.3v-0.3h0.3V347c0.2-0.2,0.3-0.3,0.3-0.5l0.8-2.1v-0.8h0.3V342l0.3-0.3v-1.6l0.3-0.3v-1.6h0.3v-1.3
			h0.3v-0.8h0.3v-0.5l0.3-0.3V335h0.3v-0.3h0.3v-0.5h0.3c0-0.3-0.1-0.6-0.4-0.7C283.4,333.5,283.2,333.4,283,333.2z M307.5,235.9
			v-0.8h0.3v-0.5l0.3-0.3v-0.5h0.3v-0.8h0.3v-0.5l0.3-0.3v-0.5h0.3v-0.5l0.3-0.3v-0.5h0.3V230h0.3v-0.8h0.3v-0.5h0.3v-0.5l0.3-0.3
			v-0.3c-0.3,0.3-0.5,0.3-0.5,0c0-0.3,0-0.7,0-1c-1.9,3.3-3.4,7-4.6,11.2c-1.1,4.2-2.4,7.9-3.8,11.2h-0.3c0.2,1.4-0.1,2.6-0.9,3.5
			c-0.8,1-1.1,2.3-0.9,4c-0.2,0.3-0.5,0.4-0.9,0.3c-0.4-0.2-0.6-0.1-0.6,0.3c0.3,0,0.6,0.1,0.6,0.3c0.1,0.2,0.2,0.3,0.4,0.5l-1,2.1
			c-0.3,1.4-0.3,2.3,0,2.9c-1,0.3-1.5,1.2-1.3,2.5c0.2,1.3-0.2,2.2-1,2.7c-0.3,0-0.5-0.1-0.4-0.4c0.1-0.3,0-0.4-0.1-0.4
			c-0.2,0.3-0.4,0.6-0.6,0.9c-0.3,0.3-0.2,0.7,0.1,1.4l0.5-0.5c0.2,0.9,0.2,1.6,0,2.1c-0.2,0.5-0.4,1-0.8,1.6
			c-0.3-0.3-0.4-0.6-0.1-0.9c0.3-0.3,0.2-0.5-0.1-0.6c-0.5,0.5-0.7,1.3-0.7,2.2c0.1,1-0.3,1.6-1.2,2v1.8c0.2,0.2,0.3,0.2,0.5,0
			c-0.7,2.6-1.3,5-1.7,7.3c-0.4,2.3-1.3,4.3-2.7,6.2c0.2,0.3,0.4,0.3,0.6,0c0.3-0.3,0.4-0.3,0.4,0c0.3,0.9,0.3,1.6-0.3,2.1
			s-0.5,1,0,1.3c-0.3,0-0.5,0.2-0.4,0.6c0.1,0.4,0,0.7-0.4,0.9c0.2-0.9-0.2-1-1-0.5c0,2.3-0.5,3.8-1.6,4.7c-0.2,0.3-0.1,0.5,0.3,0.5
			c0.3,0,0.4,0.2,0.3,0.5c-0.3,0-0.5,0.1-0.5,0.3c0,0.2-0.2,0.2-0.5,0c0,0.7-0.1,1.2-0.3,1.6c-0.2,0.3-0.1,0.7,0.3,1
			c0.5,0,1-0.3,1.3-1v0.8c0.3,0.2,0.6,0.2,0.8,0c0.2-0.2,0.4-0.3,0.8-0.3c1-3.1,2-6.3,2.9-9.6c0.9-3.3,1.6-6.8,2.1-10.7h0.5
			c0.9-3.5,1.8-6.8,2.7-10c1-3.2,1.9-6.5,2.7-9.8c0.9-2.9,1.7-5.8,2.5-8.6c0.8-2.8,1.4-5.6,2-8.6c0.9-0.9,1.2-1.9,1-3.1
			c0.3,0.2,0.5,0.1,0.5-0.1c0-0.3,0.2-0.4,0.5-0.4v-0.5h0.3v-1l0.3-0.3v-0.8l0.3-0.3v-0.8h0.3v-1h0.3v-0.8h-0.3v-0.5h0.3v0.3h0.3
			v-0.5H307.5z M286.7,287.2c-0.3,0.9-0.6,1.3-0.8,1.3c-0.3-0.2-0.4-0.5-0.1-0.9C286,287.1,286.3,287,286.7,287.2z M287.5,282.5
			c-0.3-0.2-0.4-0.3-0.1-0.3c0.3,0,0.4-0.1,0.4-0.3c0.2-0.3,0.3-0.3,0.3,0.1C288,282.5,287.8,282.7,287.5,282.5z M296.8,283.3v-0.8
			l1.6-7.5c-1.7,4-3,8.3-3.9,13c-0.9,4.7-2.1,9.1-3.6,13.3c0.5-0.2,0.6-0.1,0.3,0.3c-0.3,0.3-0.3,0.8,0,1.3c1-0.5,1.6-1.5,1.7-2.9
			c0.1-1.4,0.1-2.8,0.1-4.2c0.9,0.2,1.1-0.1,0.8-0.8c-0.3-0.7-0.2-1,0.5-0.8c-0.3-1-0.3-2.1,0.1-3.1c0.4-1,0.5-1.8,0.1-2.3
			L296.8,283.3z M291.9,278.8c-0.7,0-1,0.3-0.8,1c-0.2,0.2-0.2,0.4,0,0.8c0.2,0.3,0.4,0.5,0.8,0.5c-0.2-0.9-0.2-1.3-0.1-1.4
			C291.8,279.7,291.9,279.4,291.9,278.8z M291.6,279.9h-0.5H291.6z M291.9,277.3c0.3,0.2,0.5,0,0.5-0.4c0-0.4-0.2-0.6-0.5-0.4V277.3
			z M293.2,276.2c0,0.2,0,0.3-0.1,0.3c-0.1,0-0.1,0.1-0.1,0.3C292.9,276.6,293,276.4,293.2,276.2z M294.7,258.8H294v-0.5
			c0.2,0,0.3-0.1,0.5-0.3c0.2,0,0.2,0.1,0.1,0.3C294.5,258.5,294.6,258.6,294.7,258.8z M296.8,282.2c0.3-1,0.7-2.1,0.9-3.3
			c0.3-1.1,0.5-2.5,0.6-4L296.8,282.2z M297.6,247.6l-0.3-0.5h0.5v0.5H297.6z M297.3,259.6h0.5v-0.3L297.3,259.6z M299.2,252.8
			c0,0.5,0.1,0.8,0.3,0.8c0-0.2,0.1-0.3,0.3-0.3c0.2,0,0.3-0.2,0.3-0.5H299.2z M300.7,266.6l-0.3,0.3c0,0.2,0,0.3-0.1,0.3
			c-0.1,0-0.1,0.1-0.1,0.3h0.5C301.2,266.9,301.2,266.6,300.7,266.6z M301.8,235.9c0.3,0.2,0.6,0.1,0.7-0.3c0.1-0.3,0-0.5-0.4-0.5
			c0,0.2-0.1,0.3-0.3,0.3C301.6,235.4,301.6,235.6,301.8,235.9z M310.3,224.5c0.3,0.5,0.3,0.8,0,0.9c-0.3,0.1-0.4,0.4-0.3,0.9
			c1-0.3,1.5-0.9,1.3-1.6C311.2,224.6,310.9,224.5,310.3,224.5z M312.2,223.7c0-0.3-0.1-0.6-0.4-0.8c-0.3-0.2-0.5-0.3-0.7-0.5v1.3
			H312.2z M348.8,389.3c0.5-0.9,0.7-2.2,0.7-3.9c-0.1-1.7,0.2-3,0.9-3.9c-0.5,0-0.7-0.2-0.5-0.5c0.3,0,0.5-0.1,0.5-0.3
			c-0.3-0.2-0.4-0.6-0.3-1.3c0.2-0.7,0.3-1.3,0.5-2c0.2-0.6,0.3-1.2,0.4-1.8c0.1-0.6,0-0.9-0.4-0.9c0.7-1.9,1.3-3.8,1.7-5.6
			c0.4-1.8,0.7-3.6,0.7-5.3c2.8-8.3,4.9-16.9,6.5-25.6c1.6-8.8,3.6-17.1,6.2-25.1c-0.5-0.7-0.6-1.2-0.1-1.6c0.4-0.3,0.5-1,0.1-1.8
			c-1,0.3-1.6,1.3-1.6,2.7c0,1.5-0.3,2.7-1,3.8c-0.3,2.6-0.9,5.1-1.7,7.4c-0.8,2.3-1.3,4.8-1.7,7.4c-0.3,0.3-0.6,0.4-0.8,0.3
			c0,0.3,0,0.7,0.1,1.2c0.1,0.4,0,0.7-0.4,0.7c-0.3,0-0.5-0.1-0.4-0.3c0.1-0.2,0-0.3-0.1-0.5h0.5c0.3-0.3,0.4-0.8,0.1-1.3
			s0-0.9,0.7-1c-0.5-0.3-0.6-0.7-0.3-1c0.3-0.3,0.3-0.7-0.3-1c0.5-0.9,0.9-1.6,1-2.3c0.2-0.7,0.3-1.5,0.5-2.3l-1.3,0.8
			c0.2,0.2,0.3,0.5,0.3,0.9c0,0.4-0.3,0.7-0.8,0.7c0.3,0.9,0.3,1.5,0,1.9c-0.3,0.4-0.3,0.9,0,1.4c-0.3,0.2-0.6,0.5-0.7,1
			c-0.1,0.5-0.2,1-0.4,1.3c0.3-0.2,0.4-0.1,0.3,0.3c-0.2,0.3-0.1,0.6,0.3,0.8h-0.3c-0.3,0.3-0.5,0.7-0.5,1.2c0,0.4-0.3,0.7-0.8,0.7
			c0.3,0.9,0.3,1.6-0.1,2.1c-0.4,0.5-0.4,1,0.1,1.3c-0.5,0.2-0.8,0.4-0.8,0.8c0,0.3,0.2,0.6,0.5,0.8h-0.5c0,0.5-0.1,0.9-0.3,1
			c-0.2,0.2-0.1,0.4,0.3,0.8c-0.9,0.3-1,0.9-0.3,1.6c-0.5,0-0.8,0.1-0.8,0.3c0.3,1,0.3,1.8-0.3,2.3c-0.5,0.5-0.6,1.4-0.3,2.6
			c-0.3-0.2-0.6,0.1-0.8,0.8c-0.2,0.7-0.2,1.4,0,2.1c-0.7-0.2-1,0.1-0.8,0.8c0.2,0.7,0,1-0.5,1c0.3,0.3,0.4,0.7,0.3,1
			c-0.2,0.3-0.1,0.8,0.3,1.3c-0.2,0-0.3-0.1-0.5-0.3c0.2,0.7,0,1.2-0.4,1.4c-0.4,0.3-0.5,0.8-0.1,1.7h0.3c-0.3,0.2-0.5,0.3-0.5,0.5
			c0,0.2-0.2,0.2-0.5,0c0.3,0.9,0.3,1.6-0.3,2.3c-0.5,0.7-0.4,1.4,0.3,2.1c-0.3,0-0.5,0-0.5,0.1c0,0.1-0.2,0.1-0.5,0.1
			c0.2,2.1-0.1,3.9-0.8,5.6c-0.7,1.6-1,3.4-0.8,5.3c-0.2,0-0.3,0-0.3-0.1c0-0.1-0.1-0.1-0.3-0.1c0.3,1.2,0.2,2.2-0.4,2.9
			c-0.6,0.7-0.5,1.5,0.4,2.3c-0.7,1.6-1.2,3.7-1.6,6.4c-0.3,2.7-0.1,4.9,0.8,6.6c-0.2,0.3-0.3,0.4-0.5,0.3c-0.2-0.2-0.4-0.2-0.8,0
			c0,2.6,0.6,4.4,1.8,5.5c0,0.3-0.2,0.5-0.5,0.4c-0.3-0.1-0.4,0-0.3,0.4c0.3,0.3,0.7,0.5,1.2,0.4c0.4-0.1,0.4,0.1-0.1,0.7h1
			c-1-3.3-1.4-6.4-1.2-9.4c0.3-2.9,0.2-6-0.1-9.1c0.5-0.3,0.8-0.9,0.9-1.6c0.1-0.7,0.1-1.4,0.1-2.2c0-0.8,0.1-1.4,0.3-1.9
			c0.2-0.5,0.6-0.8,1.3-0.8c-0.7,1.6-1,3.5-0.9,5.7c0.1,2.3-0.1,3.9-0.6,4.9c-0.2,0.3-0.1,0.5,0.1,0.4c0.3-0.1,0.4,0,0.4,0.4
			c-0.5,1-0.7,2.4-0.6,4.2c0.1,1.7,0,3.1-0.1,4.2c0.5,0,0.9-0.3,1-0.9c0.2-0.6,0-1.1-0.5-1.4c0.5-0.5,0.7-1,0.4-1.3
			C349,390,348.8,389.7,348.8,389.3z M347.3,395.3v0.5h-0.5v-0.5H347.3z M348.6,395.8c0.3-0.2,0.5-0.1,0.5,0.3
			c0,0.3,0.2,0.4,0.5,0.3c-0.2-0.3-0.2-0.8,0-1.4c0.2-0.6,0-0.9-0.5-0.9c0,0.2-0.3,0.3-0.8,0.3C348.5,394.6,348.6,395.1,348.6,395.8
			z M349.3,400.5v-0.3h-0.5v0.3H349.3z M352.2,357.6c0.2,0,0.3,0,0.3-0.1c0-0.1,0.2-0.1,0.5-0.1c-0.2-0.7-0.1-1.4,0.3-2.1
			c0.3-0.7,0.3-1.1,0-1.3c1.4-2.9,2.3-6.2,2.6-9.8c0.3-3.6,1.2-6.6,2.6-9.2c-1.2,6.9-2.6,13.4-4.3,19.5c-1.6,6.1-3.1,12.5-4.3,19.2
			c-0.5-2.8-0.3-5.3,0.8-7.7C351.7,363.7,352.2,360.9,352.2,357.6z M350.9,355c0.3,0.3,0.5,0.3,0.4-0.3c-0.1-0.5-0.3-0.6-0.6-0.3
			C350.6,354.7,350.7,354.8,350.9,355z M351.2,387.5c0.7-1,1-2.4,1-4c0-1.6,0.2-3.2,0.5-4.5h-0.3C351.6,381.2,351.2,384,351.2,387.5
			z M352.2,377.9c0.3,0.2,0.6,0,0.8-0.4c0.2-0.4,0.1-0.7-0.3-0.9C352.4,376.8,352.2,377.2,352.2,377.9z M352.5,307.2
			c0.2,0,0.2,0.1,0.1,0.3c-0.1,0.2,0,0.3,0.4,0.3v-0.8C352.6,306.9,352.5,307,352.5,307.2z M353,387c0.5-1,0.9-2.3,1-3.9
			c0.2-1.6,0.3-3,0.3-4.4c-0.3,1.2-0.7,2.5-1,3.8C352.9,383.7,352.8,385.3,353,387z M353.2,373.7c0-0.5,0.3-1,0.8-1.6
			c-0.5-0.2-0.8,0-0.9,0.5C353,373.2,353.1,373.6,353.2,373.7z M353.8,371.7c0.3-0.2,0.5-0.6,0.4-1.2c-0.1-0.6-0.3-0.7-0.7-0.4
			c-0.2,0.2-0.3,0.5-0.4,0.9C353,371.4,353.2,371.7,353.8,371.7z M354.3,307.4v-0.3h-0.5v0.3H354.3z M354,367.2
			c0.2,0.3,0.2,0.8,0,1.3c-0.2,0.5-0.1,1,0.3,1.3c0.2-0.3,0.3-0.8,0.5-1.4C355,367.8,354.7,367.4,354,367.2z M354.3,377.9
			c0.3,0.2,0.5,0,0.4-0.4c-0.1-0.4,0-0.6,0.4-0.4c-0.3-0.3-0.4-0.5-0.3-0.5c0.2,0,0.3-0.3,0.3-0.8h-0.8c0.2,0.3,0.2,0.7,0,0.9
			C354.1,377,354.1,377.4,354.3,377.9z M354.8,332.7c0.2,0,0.2,0.1,0.1,0.4c-0.1,0.3-0.3,0.4-0.7,0.4c0-0.3,0.1-0.5,0.3-0.5
			C354.7,332.9,354.8,332.8,354.8,332.7z M354.8,366.5c1.6-5,3.1-10.4,4.6-16.1c1.5-5.7,2.6-11.4,3.5-16.9c-1.4,5-2.8,10.5-4.3,16.5
			C357.1,355.9,355.8,361.4,354.8,366.5z M355.1,374.3c0.3,0.2,0.5,0,0.5-0.5c0-0.5-0.2-0.7-0.5-0.5V374.3z M356.6,367.2
			c0.3,0.2,0.5,0,0.4-0.4c-0.1-0.4-0.3-0.5-0.6-0.1C356.5,366.9,356.6,367.1,356.6,367.2z M357.9,391.9c0.5,0,0.7-0.2,0.5-0.5
			c0-0.2-0.1-0.2-0.3-0.1c-0.2,0.1-0.3,0-0.3-0.1c0-0.5-0.1-0.8-0.3-0.8c0,0.3-0.2,0.5-0.5,0.5c0.3,0,0.5,0.2,0.5,0.6
			c0,0.4-0.2,0.6-0.5,0.4c0,0.2,0,0.3,0.1,0.5c0.1,0.2,0.1,0.3,0.1,0.5c0.3,0.2,0.4,0,0.3-0.4C357.5,392.2,357.6,391.9,357.9,391.9z
			 M357.9,389.6c0.3,0.2,0.5,0,0.5-0.4c0-0.4-0.2-0.6-0.5-0.4V389.6z M359,306.7l0.5,0.5v-0.8c-0.3,0.2-0.7,0.3-1,0.3
			c-0.3,0-0.4,0.2-0.3,0.5c0.3,0.2,0.5,0.2,0.5,0C358.7,307,358.8,306.8,359,306.7z M358.2,386c0.3,0,0.6-0.1,0.8-0.3v-0.3h-0.8V386
			z M360,374.3c0.9,0,1.2-0.2,0.9-0.5c-0.3-0.3-0.2-0.7,0.1-1h-1c-0.3,2.1-0.8,4.2-1.3,6.2c-0.5,2.1-0.5,3.8,0,5.2
			c0.3-0.7,0.6-1.3,0.7-1.8c0.1-0.5,0.4-1,0.9-1.6c-0.7-1-0.7-2.1-0.1-3.3C360.7,376.4,360.7,375.3,360,374.3z M359,334.2v0.5
			c-0.2,0-0.3,0.1-0.5,0.3v-0.8H359z M359.5,311.6c0.3-0.2,0.5,0,0.5,0.4c0,0.4-0.2,0.6-0.5,0.4V311.6z M360.8,323
			c0.2-0.5,0.1-0.8-0.3-0.8c-0.3,0-0.6-0.2-0.8-0.5c0,0.3,0,0.6,0.1,0.7c0.1,0.1,0.1,0.2,0.1,0.4C360.3,322.8,360.6,322.9,360.8,323
			z M360.5,319.1c0.3,0.7,0.4,1.1,0.3,1.3c-0.2,0.2-0.4,0.4-0.8,0.8c0,0.2,0.1,0.3,0.4,0.5c0.3,0.2,0.5,0.1,0.6-0.3
			c-0.3-0.3-0.4-0.7-0.1-1.2c0.3-0.4,0.6-0.5,0.9-0.1c-0.2-0.3-0.3-0.7-0.3-1c0-0.3-0.2-0.7-0.5-1c0.2,0.3,0.2,0.6,0,0.6
			C360.9,318.8,360.7,319,360.5,319.1z M361.3,371.9c0-0.3,0-0.6,0.1-0.9c0.1-0.3,0.1-0.6,0.1-0.9h-0.8c-0.3,0.2-0.4,0.4-0.1,0.8
			c0.3,0.3,0.1,0.3-0.4,0c0,0.3,0,0.6,0.1,0.6c0.1,0.1,0.1,0.2,0.1,0.4H361.3z M361.6,315.2v0.5h0.3v-0.5H361.6z M362.3,312.9
			c-0.2,0-0.3,0.3-0.4,0.8c-0.1,0.5,0,0.7,0.4,0.5c0-0.2,0.1-0.4,0.3-0.8C362.8,313.1,362.7,312.9,362.3,312.9z M363.4,332.9
			c0.2-0.2,0.3-0.6,0.4-1.2c0.1-0.6,0-1-0.1-1.2c-0.2,0.3-0.3,0.7-0.5,1.2C362.9,332.2,363,332.6,363.4,332.9z M363.9,329.8
			c0.3-0.3,0.5-0.9,0.4-1.6c-0.1-0.7,0.2-1.2,0.9-1.6c0-0.2-0.1-0.3-0.3-0.3c-0.2,0-0.3-0.2-0.5-0.5c-0.3,0.7-0.5,1.4-0.5,2.1
			C363.9,328.7,363.9,329.3,363.9,329.8z M364.7,325.4c-0.2,0.2-0.3,0.3-0.3,0.5l0.5-0.5H364.7z M365.2,324.6
			c0.3-0.2,0.5-0.7,0.5-1.6c-0.3-0.2-0.6,0-0.8,0.5C364.8,324.1,364.9,324.4,365.2,324.6z M365.5,291.3c-0.3-0.2-0.4-0.3-0.1-0.5
			c0.3-0.2,0.3-0.4,0.1-0.8h0.5C366,290.5,365.8,291,365.5,291.3z M365.7,322.8c-0.2-0.5-0.1-0.8,0.3-0.9c0.3-0.1,0.4-0.3,0.3-0.6
			c-0.2,0.2-0.3,0.2-0.5,0c-0.2,0.2-0.3,0.4-0.4,0.8C365.2,322.3,365.4,322.6,365.7,322.8z M366.2,319.4c0.3,0.2,0.5,0.1,0.5-0.3
			c0-0.3-0.2-0.5-0.5-0.5V319.4z M366.8,284.8c0.3,0,0.5,0.3,0.5,0.8h-0.5V284.8z M367.5,284c-0.3-0.2-0.4-0.3-0.1-0.5
			c0.3-0.2,0.2-0.4-0.1-0.8c0.5,0,0.7,0.2,0.7,0.7C367.8,283.8,367.7,284,367.5,284z M367.3,294.7c0.9-0.3,1.4-1,1.6-1.8
			c0.2-0.9,0.3-1.7,0.5-2.6h-0.5c0,0.9-0.3,1.6-0.8,2.2C367.5,293.1,367.3,293.8,367.3,294.7z M368.1,279.9c0.3,0,0.5-0.1,0.5-0.3
			c0.3,0.2,0.4,0.4,0.3,0.6c-0.2,0.3-0.4,0.4-0.8,0.4V279.9z M368.6,311.6c-0.2-0.3-0.1-0.6,0.1-0.6c0.3-0.1,0.4-0.3,0.4-0.7
			c-0.5-0.2-0.8,0.1-0.8,0.8C368.3,311.8,368.4,311.9,368.6,311.6z M368.8,277.3c0.5,0,0.7,0.3,0.5,1c-0.2,0.7-0.4,1-0.8,0.8
			c0.2-0.3,0.2-0.6,0-0.9C368.4,277.9,368.5,277.6,368.8,277.3z M369.1,276.4c0.2-0.3,0.4-0.3,0.8-0.1l-0.5,0.5
			C369,276.8,368.9,276.6,369.1,276.4z M381.3,258c0.2-2.4,0.7-4.5,1.7-6.1c1-1.6,1.3-3.5,1.2-5.6c0.2,0,0.3,0,0.4-0.1
			c0.1-0.1,0.2-0.1,0.4-0.1c-0.2-0.3-0.3-0.6-0.3-0.9c0-0.3-0.2-0.3-0.5-0.1c-0.2,0.5-0.3,1-0.4,1.6c-0.1,0.5,0,1.2,0.1,2.1
			c-0.3-0.2-0.6-0.2-0.8,0c-0.2,0.2-0.4,0.3-0.8,0.5c-1.4,5.5-3.1,11.1-5.2,16.6c-2.1,5.5-3.6,11.1-4.4,16.6c-0.9,1.9-1.6,4-2.1,6.2
			c-0.5,2.3-1,4.5-1.6,6.8c1.4-1.2,2.2-2.9,2.5-5.1c0.3-2.2,0.6-4.4,0.9-6.6c0.7-0.9,1.1-2,1.3-3.5c0.2-1.5,0.3-2.6,0.5-3.5h1
			c0-1,0.1-2.1,0.3-3.1c0.2-1,0.7-2.1,1.6-3.1c0.3-1.9,0.7-3.8,1.2-5.7c0.4-1.9,1.3-3.6,2.5-4.9c0-0.2-0.2-0.6-0.5-1.3
			c0.3,0,0.5-0.1,0.5-0.3C380.8,258.1,381,258,381.3,258z M370.1,274.9c-0.3,0-0.4-0.3-0.3-0.8c0.2-0.5,0.4-0.8,0.8-0.8
			c0,0.2-0.1,0.3-0.3,0.3c-0.3,0-0.4,0.1-0.3,0.4C370.3,274.3,370.3,274.6,370.1,274.9z M370.9,272.9c-0.2,0.2-0.4,0.3-0.8,0.3
			c-0.3-0.5-0.3-0.8,0-0.8c0.3,0,0.4-0.2,0.3-0.5c0.3,0,0.5,0.1,0.4,0.4C370.7,272.5,370.7,272.7,370.9,272.9z M372,278.3v0.5h0.5
			v-0.5H372z M372.5,266c0.3-0.3,0.3-0.6,0-0.9c0.3,0,0.4,0,0.3,0.1c-0.2,0.1-0.1,0.3,0.3,0.6l-0.5,0.5
			C372.1,266.4,372.1,266.2,372.5,266z M373,264.3c-0.3-0.5-0.3-0.8,0-0.9c0.3-0.1,0.4-0.3,0.3-0.6c0.3,0.2,0.5,0.5,0.4,0.9
			C373.6,264.1,373.3,264.3,373,264.3z M374,272.1v-0.3h-0.5v0.3H374z M373.8,290.8c0.3,0.2,0.5,0,0.5-0.4c0-0.4-0.2-0.6-0.5-0.4
			V290.8z M375.3,258.6h-0.5c0.2-0.2,0.2-0.3,0.1-0.5c-0.1-0.2,0-0.3,0.4-0.3V258.6z M375.6,255.4c0.3-0.3,0.6-0.3,0.6,0.1
			c0.1,0.4,0,0.6-0.4,0.4c0-0.2,0-0.3-0.1-0.3C375.6,255.7,375.6,255.6,375.6,255.4z M377.7,250c0,0.2,0,0.5-0.1,1
			c-0.1,0.5-0.3,0.7-0.6,0.5c-0.2-0.5-0.2-0.8,0-0.9C377.1,250.5,377.3,250.3,377.7,250z M378.5,247.9c0,0.2,0,0.3,0.1,0.3
			c0.1,0,0.1,0.1,0.1,0.3c-0.3,0-0.5,0.2-0.4,0.5c0.1,0.3-0.1,0.5-0.6,0.5c0.2-0.5,0.3-1,0.4-1.4c0.1-0.4,0.4-0.6,0.9-0.6
			c0,0.3-0.1,0.5-0.3,0.4C378.5,247.7,378.5,247.7,378.5,247.9z M381.8,240.6c-0.9-0.2-1.2-0.1-0.9,0.3c0.3,0.3,0.3,0.6,0.1,0.8h0.3
			l0.5-0.3V240.6z M386,242.4c0,0.2,0,0.3,0.1,0.4c0.1,0.1,0.1,0,0.1-0.4c-0.2-0.2-0.3-0.4-0.4-0.6c-0.1-0.3-0.3-0.4-0.6-0.4
			c0,0.5-0.1,1-0.4,1.4c-0.3,0.4-0.2,1,0.1,1.7c0.5,0,0.9-0.1,1-0.3c0-0.3-0.1-0.7-0.3-1C385.6,242.9,385.7,242.6,386,242.4z
			 M387.3,238.5c0.7-1.7,1.1-3,1.3-3.9h-0.5c0,0.7-0.3,1.4-0.8,2.2C386.8,237.6,386.8,238.2,387.3,238.5z M389.1,233.3
			c0.3-0.3,0.7-0.9,1-1.6c0.3-0.7,0.3-1.3,0-1.8c0,0.2-0.1,0.3-0.3,0.3c-0.2,0.3-0.2,0.5,0,0.5c0.2,0,0.3,0.1,0.3,0.3
			C389.3,231.5,388.9,232.3,389.1,233.3z M390.9,229.2v-0.5l-0.5,0.3v0.3H390.9z M392,226.1c0.3,0,0.5-0.1,0.5-0.3
			c-0.5-0.2-0.8-0.1-0.8,0.1c0,0.3-0.2,0.4-0.5,0.4c0,0.5,0,1-0.1,1.3c-0.1,0.3-0.2,0.7-0.4,1C391.2,228.3,391.6,227.4,392,226.1z
			 M399,190.7c-0.3,0.5-0.7,1-1,1.6c-0.3,0.5-0.9,1-1.6,1.3c0.3-0.7,0.6-1.3,0.9-1.8C397.6,191.2,398.1,190.9,399,190.7z"/>
	</g>
</g>
<g>
	<rect x="386" y="185.5" class="st0" width="295.5" height="332.5"/>
	<path class="st2" d="M543.3,396.9c1.4-0.2,2,0,1.7,0.4c-0.3,0.4-0.6,1-0.9,1.7c0,0.2-0.2,0.6-0.5,1.3c-1.9,1-3.9,2-6,2.7
		c-2.1,0.8-4.1,1-6,0.6c0.2,0,0.3,0,0.3-0.1c0-0.1-0.1-0.1-0.3-0.1c0-0.3,0.2-0.4,0.5-0.3c0.3,0.2,0.5,0.3,0.5,0.5
		c0.3-0.3,0.7-0.5,1-0.5c-2.3-0.3-4.4-0.6-6.4-0.8c-2-0.2-4.1-0.4-6.4-0.8c1.4,0.3,3,0.7,4.9,1.2c1.9,0.4,3.4,0.6,4.4,0.4
		c-2.1,0.9-4.3,1-6.6,0.3c-2.3-0.7-4.5-1.2-6.4-1.6h0.3c-2.4-1.4-4.9-2.3-7.5-2.7c-2.6-0.4-5.1-1.3-7.5-2.7c0.3,0.5,0.1,0.6-0.7,0.4
		s-1.3-0.7-1.4-1.4c-5.9-1.4-11.7-3.8-17.3-7.3c-5.6-3.5-10.9-7.1-15.7-10.9c-0.2-0.3-0.1-0.5,0.1-0.5c0.3,0,0.4-0.2,0.4-0.5
		c-1.4,0.3-2.5-0.1-3.3-1.4c-0.8-1.3-1.7-2.3-2.7-3c0,0.2,0.4,0,1.3-0.5c-0.2-0.5-0.4-0.9-0.8-1c-0.3-0.2-0.6-0.5-0.8-1
		c-0.5,0.5-0.7,0.8-0.5,0.8c0,0.9,0.2,1.1,0.5,0.7c0.3-0.4,0.5-0.3,0.5,0.4c-0.7,0.5-1.2,0.3-1.6-0.5c-0.3-0.9-0.9-1.4-1.6-1.6
		c0.2-0.3,0.5-0.3,0.9,0c0.4,0.3,0.7,0.7,0.9,1c0.2,0,0.2-0.1,0.1-0.3c-0.1-0.2,0-0.3,0.4-0.3c-0.3-0.3-0.6-0.6-0.8-0.9
		c-0.2-0.3-0.4-0.5-0.8-0.7c-0.3,0.5-0.6,0.6-0.9,0.1c-0.3-0.4-0.2-0.8,0.1-1.2c-0.7,0-1.2-0.3-1.6-0.9c-0.3-0.6-0.8-1.2-1.3-1.7
		c-0.2,0.2-0.1,0.6,0.3,1.3c-2.9-2.8-5.7-5.7-8.2-8.7c-2.5-3-5-6.2-7.4-9.5c-1.6,1.7-2.6,3.8-3.1,6.1s-1.6,4.5-3.1,6.4
		c-1.7,7.5-4.6,14.7-8.6,21.7c-4,7-8.9,13.4-14.8,19.1c-0.2-0.3-0.1-0.6,0.1-0.6c0.3-0.1,0.4-0.3,0.4-0.7c-2.1,0.5-4,0.7-5.7,0.4
		c-1.7-0.3-3.5-0.5-5.2-0.6c-2.9-0.2-5.3-0.9-7.2-2.1c-1.8-1.2-3.3-2.8-4.3-4.8c-1-2-1.7-4.1-2.1-6.4c-0.3-2.3-0.6-4.5-0.8-6.8
		c-0.3-0.7-0.6-1.4-0.7-2.1c-0.1-0.7,0.3-1.2,1.2-1.6c-0.3-0.2-0.5-0.4-0.4-0.6c0.1-0.3,0-0.7-0.1-1.4c0.5,0.3,0.8,0.4,0.8,0.1
		c0-0.3-0.2-0.6-0.5-1.2c0.3,0,0.6-0.1,0.7-0.3c0.1-0.2,0.2-0.3,0.4-0.3c0-0.3-0.1-0.5-0.4-0.5c-0.3,0-0.4-0.2-0.4-0.5
		c0.2-0.3,0.4-0.2,0.8,0.4c0.3,0.6,0.8,0.9,1.3,0.9c0.2-0.7,0.1-1-0.1-0.9c-0.3,0.1-0.6,0-0.9-0.4c-0.3-0.5-0.3-0.9,0.1-1
		c0.4-0.2,0.6-0.5,0.4-1c0.3,0,0.6,0.1,0.6,0.3c0.1,0.2,0.2,0.3,0.4,0.3c0.3-0.9,0.3-1.3,0-1.3c-0.3,0-0.5-0.4-0.5-1.3
		c0.3-0.3,0.6-0.4,0.7-0.3c0.1,0.2,0.3,0.1,0.6-0.3c0.3-0.9,0.3-1.5-0.1-1.9c-0.4-0.4-0.2-0.9,0.7-1.4c-0.7-0.2-0.9-0.4-0.7-0.8
		c0.3-0.3,0.4-1,0.4-1.8c0.3,0,0.5,0.1,0.5,0.3c0,0.2,0.2,0.3,0.5,0.3c-0.5-0.3-0.7-0.7-0.5-1c0.2-0.3,0.2-0.9,0-1.6
		c0.3,0.3,0.7,0.4,0.9,0.1c0.3-0.3,0.4-0.6,0.4-0.9c0-0.5-0.3-0.8-1-0.8c0.5-0.3,1-0.8,1.3-1.4c0.3-0.6,0.3-1.3,0-2
		c0.9-0.2,1.3-1,1.3-2.6s0.3-2.8,0.8-3.6c-0.2-0.5-0.3-0.5-0.3,0s-0.2,0.6-0.5,0.3c-0.2-0.7-0.1-1.1,0.3-1.3c0.3-0.2,0.4-0.5,0.3-1
		c0.2,0,0.3,0,0.3,0.1c0,0.1,0.1,0.1,0.3,0.1c0-1.4,0.2-2.7,0.6-3.9c0.4-1.2,0.8-2.7,1.2-4.4c0.3,0,0.5,0.2,0.4,0.5
		c-0.1,0.3-0.1,0.7-0.1,1c0.7-0.5,1-1.2,0.9-2.1c-0.1-0.9,0.2-1.6,0.9-2.1c-0.2-0.3-0.4-0.5-0.8-0.4c-0.3,0.1-0.4-0.1-0.3-0.6
		c0.3,0,0.5,0,0.5,0.1c0,0.1,0.2,0.1,0.5,0.1c0.2-0.3,0-0.5-0.5-0.5c1-0.7,1.5-1.5,1.3-2.3c-0.3-0.3-0.5-0.2-0.5,0.5
		c-0.3,0-0.4-0.3-0.1-0.8c0.3-0.5,0.7-0.7,1.2-0.5c0-1.9,0.5-3.6,1.4-4.9c1-1.4,1.6-3.6,2-6.5c0.9,0.2,1.1,0.1,0.6-0.1
		c-0.4-0.3-0.5-0.7-0.1-1.2c0.2,0,0.3,0.1,0.3,0.3c0,0.2,0.1,0.3,0.3,0.3c0.7-2.1,1.3-3.6,1.7-4.4c0.4-0.9,0.8-2.3,1.2-4.2
		c1.4-0.9,1.9-2.3,1.6-4.2c0.3-0.3,0.7-0.7,1.2-1c0.4-0.3,0.5-0.8,0.1-1.3h0.8c0-0.5,0.1-0.9,0.3-1c0.2-0.2,0.1-0.5-0.3-1
		c0.7-0.3,1.2-0.8,1.4-1.4c0.3-0.6,0.3-1.2,0.1-1.7c0.9-0.2,1.3-0.9,1.4-2.1c0.1-1.2,0.3-2.3,0.7-3.1c2.4-3.3,4.5-6.9,6.1-10.8
		c1.6-3.9,3.5-7.8,5.6-11.8c3.5-5.9,6.9-11.6,10.3-17.2c3.4-5.5,7.3-10.6,11.8-15.1c1.4-2.3,2.3-5.3,2.7-9.1
		c0.4-3.8,0.5-7.1,0.1-9.9c0.2-0.3,0.3-0.4,0.4-0.3c0.1,0.2,0.3,0.2,0.7,0c-0.7-1.2-1-2.6-1-4.2c0.9,0,1.5-0.1,2-0.3
		c0.4-0.2,0.9-0.1,1.4,0.3c0.3,0,0.5-0.1,0.5-0.4c0-0.3,0.2-0.5,0.5-0.6c0.5-0.2,0.9-0.1,1,0.1c0.2,0.3,0.5,0.3,1,0.1
		c0.2,0.3,0.2,0.6,0,0.7c-0.2,0.1-0.3,0.3-0.3,0.6c2.3-0.7,4.3-0.3,6.2,1.3c1.9-1.6,3.9-3,5.9-4.4c2-1.4,3.9-2.9,5.6-4.7
		c5.7-3.6,11.5-5.8,17.3-6.5c5.8-0.7,11.2-0.1,16.1,1.7c4.9,1.8,9.2,4.7,12.7,8.6c3.6,3.9,6,8.5,7.4,13.9c0.7,3.1,0.8,7.1,0.4,12
		c-0.4,4.9-1.3,9.8-2.6,14.8c-1.3,5-2.8,9.8-4.5,14.3c-1.7,4.5-3.4,8-4.9,10.4c-3.5,5.4-6.8,10.8-10.1,16.4
		c-3.3,5.5-7.4,10.4-12.2,14.6c-0.5,0.9-1,1.7-1.6,2.5c-0.5,0.8-1.4,1.3-2.6,1.7c-5,4.5-10,9.1-15,13.8c-4.9,4.7-10.7,8.5-17.3,11.4
		l9.4,13.8c3.5,5,7.3,9.2,11.4,12.5c4.2,3.3,8.1,6.9,12,10.9c3.3,2.1,6.8,4,10.7,5.9c3.8,1.8,7,3.9,9.6,6.4c0.9-0.5,1.7-0.5,2.6,0
		c0.9,0.5,1.4,1,1.6,1.6c0.3-0.5,0.8-0.6,1.3-0.3c0.5,0.3,1,0.5,1.3,0.5c0,0.9,0.8,1.8,2.3,2.7c1.6,1,3.4,1.9,5.5,2.7
		c2.1,0.9,4.3,1.7,6.6,2.5c2.3,0.8,4.5,1.3,6.4,1.7c0.2,0,0.3,0,0.4,0.1c0.1,0.1,0.3,0.1,0.7,0.1h0.5
		C541.7,397,542.6,397,543.3,396.9z M388.3,369.8c-0.3,0.3-0.3,0.5,0.3,0.5c0.5,0,0.7-0.2,0.5-0.5c-0.2,0-0.3,0-0.3-0.1
		C388.9,369.6,388.7,369.6,388.3,369.8z M395.9,354c0.5-0.9,1-2.1,1.6-3.6c0.5-1.6,0.6-2.9,0.3-3.9c-0.3,1.4-0.7,2.6-1,3.8
		C396.3,351.3,396.1,352.6,395.9,354z M448.1,244.5c-0.3-0.5-0.4-0.9-0.1-1.2c0.3-0.3,0.2-0.6-0.1-0.9c-2.4,2.4-4.6,5.1-6.5,8.1
		c-1.9,2.9-3.6,5.6-4.9,8.1c0.5-0.5,0.8-0.6,0.8-0.3c-0.7,0.7-1.3,1.1-1.8,1.3c0,0.3,0,0.5,0.1,0.5c0.1,0,0.1,0.2,0.1,0.5
		c-0.3,0.3-0.5,0.4-0.5,0.3c0-0.2-0.2-0.2-0.5,0c-0.3,0.5-0.5,0.9-0.4,1.2c0.1,0.3,0,0.6-0.4,0.9c0-0.2,0-0.3,0.1-0.4
		c0.1-0.1,0-0.1-0.4-0.1c-0.3,0.7-0.6,1.2-0.9,1.6c-0.3,0.3-0.4,0.9-0.4,1.6c-0.7,0.5-1.3,1.4-2,2.7c-0.6,1.3-1,2.6-1.2,3.8
		c-0.3,0-0.9,0.4-1.7,1.2c-0.8,0.8-0.9,1.2-0.4,1.2c-0.7,0.3-1,0.9-1,1.7c0,0.8-0.4,1.3-1.3,1.7c0,0.3,0.1,0.5,0.3,0.4
		c0.2-0.1,0.3,0,0.5,0.1c-1.6,1.7-2.8,3.6-3.6,5.6c-0.9,2-1.9,4-3.1,6.1c0.5,0,0.8,0.2,0.8,0.5c-1,0.3-1.4,0.8-1,1.4
		c0.3,0.6-0.1,1.1-1.3,1.4c0.2,0.9,0,2.1-0.7,3.6c-0.6,1.6-1.3,2.6-2.2,3.1c0,0.3,0.1,0.5,0.3,0.4c0.2-0.1,0.3,0,0.5,0.1
		c-1.4,2.4-2.6,4.9-3.5,7.4c-1,2.5-2,4.5-3.3,5.9c0.2,0.7,0.1,1.4-0.3,2.1c0.2-0.3,0.3-0.7,0.3-1c0-0.3-0.2-0.3-0.5,0
		c0,0.2,0,0.4-0.1,0.8c-0.1,0.3,0,0.4,0.4,0.3l-1,1.8l0.5-0.5c-0.5,1-0.9,2.3-1.2,3.6c-0.3,1.4-0.8,2.3-1.7,2.9
		c-0.5,1.4-1.1,3.3-1.7,5.7c-0.6,2.4-1.4,4-2.5,4.7c0.3,0.9,0.4,1.8,0.1,2.9s-0.6,2.1-1,3.3c-0.4,1.1-0.8,2.2-1,3.1
		c-0.3,1-0.3,1.8-0.1,2.5c5.9-17.9,12.9-35.4,20.9-52.8C427.5,275.8,437,259.6,448.1,244.5z M440.1,280.6c0.5-2.9,1.2-5.6,2-7.9
		s1-4.9,0.7-7.7c-0.9,1.7-1.8,3.3-2.9,4.8c-1,1.5-1.7,3.2-2.1,5.1c-2.4,2.6-4.3,5.5-5.7,8.8c-1.4,3.3-2.8,6.7-4.2,10.1
		c-2.9,5.7-5.8,11.8-8.6,18.2c-2.8,6.4-5.3,12.7-7.5,18.7c-3.6,10.7-6.4,19.8-8.3,27.3c-1.9,7.5-3.2,13.5-3.8,18.2
		c-0.6,4.7-0.7,8.1-0.3,10.1c0.4,2.1,1.2,3.1,2.2,3.1c1.4,0,2.6-0.7,3.8-2.1c1.1-1.4,2.1-2.9,3-4.5c0.9-1.6,1.6-3.2,2.1-4.6
		c0.5-1.4,0.9-2,1-1.8c0.5-0.3,0.8-0.7,0.9-1c0.1-0.3,0.5-0.3,1.2,0c-0.9-1-0.9-2,0-2.9c0.9-0.9,1.3-1.6,1.3-2.3
		c-0.2,0.2-0.3,0.4-0.4,0.6c-0.1,0.3-0.2,0.2-0.4-0.1c0.5-0.9,0.9-1.8,1-2.7c0.2-1,0.8-1.4,1.8-1.4c-0.2-1.2,0.3-2.5,1.3-3.9
		c1-1.4,1-2.2-0.3-2.3c0-0.7,0.2-1.2,0.6-1.4c0.4-0.3,0.7-0.6,0.7-1.2c-0.5,0-0.8-0.3-0.8-0.8c0.9,0,1.4-0.6,1.6-1.8
		c0.2-1.2,0.6-2.2,1.3-2.9c0.2,0.3,0.1,0.6-0.1,0.9c-0.3,0.3-0.2,0.4,0.1,0.4c0.3-0.7,0.6-1.3,0.9-1.8c0.3-0.5,0-0.7-0.9-0.5
		c0.2-0.5,0.4-0.7,0.6-0.5c0.3,0.2,0.6,0.1,0.9-0.3c0.5-1,0.7-1.9,0.7-2.5c-0.1-0.6-0.1-1.2-0.1-1.7c0.2,0,0.3,0.1,0.3,0.3
		c0,0.2,0.2,0.2,0.5,0c0.2-0.3,0.1-0.5-0.1-0.5c-0.3,0-0.5-0.2-0.6-0.5c0.5-0.2,1-0.6,1.4-1.3c0.4-0.7,0.8-1.4,1-2.2
		c0.3-0.8,0.4-1.5,0.4-2.1c0-0.6-0.1-0.9-0.3-0.9c0.5-1.6,0.9-2.7,1-3.5c0.2-0.8,0.6-1.9,1.3-3.5c0.2,0.5,0.2,0.9,0,1
		c-0.2,0.2,0,0.3,0.5,0.5c-0.3-0.9-0.2-1.5,0.4-1.8c0.6-0.3,0.6-0.8-0.1-1.3c-0.2,0.2-0.3,0.5-0.4,0.9c-0.1,0.4-0.2,0.5-0.4,0.1
		c0-1,0.4-1.8,1.3-2.3c-0.3-2.1,0-4.4,1.2-6.9c1.1-2.5,1.8-4.5,1.9-5.9c0.2,0.5,0.4,0.8,0.8,0.8c-0.3-0.5-0.3-0.9,0.1-1
		c0.4-0.2,0.5-0.5,0.1-1c-0.3-0.2-0.6-0.1-0.6,0.3c-0.1,0.3-0.2,0.3-0.4,0c0-1.7,0.2-3.2,0.5-4.4c0.3-1.2,0.3-2.5,0-3.9
		c0.3-0.3,0.7-1.3,1.2-2.9c0.4-1.6,0.6-3,0.4-4.4c0.5-1.4,1.2-3.7,2-7c0.8-3.3,1.3-6.2,1.7-8.8c0.3,0.2,0.6-0.2,0.8-1
		c0.2-0.9,0.2-1.2,0-1c0.3-0.3,0.5-0.7,0.4-1.2C439.6,280.3,439.7,280.3,440.1,280.6z M415.6,369c-0.2-0.3,0-0.6,0.4-0.8
		c0.4-0.2,0.4-0.3-0.1-0.5c0,0.2-0.1,0.4-0.4,0.8C415.3,368.9,415.3,369,415.6,369z M421.6,370.1c0-0.3,0.2-0.7,0.5-1
		c-0.3-0.2-0.6,0-0.8,0.5C421.2,370.1,421.3,370.3,421.6,370.1z M422.1,368.3c0.2-0.2,0.3-0.4,0.5-0.6c0.2-0.3,0.1-0.2-0.3,0.1
		c-0.3-0.2-0.5,0-0.5,0.5S422,368.8,422.1,368.3z M422.9,348c0.3,0,0.3,0.1,0,0.4c-0.3,0.3-0.4,0.6-0.3,0.9c-0.3,0-0.4-0.2-0.1-0.5
		C422.8,348.4,422.9,348.2,422.9,348z M425.5,340.7v-0.8h0.3v0.8H425.5z M428.9,329.3v0.3h0.3v-0.3H428.9z M429.4,329.3h-0.3v-0.5
		h0.3V329.3z M433.1,319.1h-0.8v0.5h0.5v-0.3h0.3V319.1z M434.4,313.1c-0.5-0.2-0.8,0-0.8,0.6c0,0.6,0.2,0.9,0.5,0.9
		c-0.2-0.3-0.2-0.6,0-0.8C434.3,313.7,434.4,313.5,434.4,313.1z M434.6,325.4h-0.3v0.3h0.3V325.4z M438.5,288.2
		c0.2-0.2,0.4-0.3,0.8-0.3c0-0.2,0-0.3-0.1-0.3c-0.1,0-0.1-0.1-0.1-0.3h-0.5V288.2z M443.5,270l-0.3,0.3v0.3h0.5V270H443.5z
		 M444.5,247.1c0.3,0.2,0.3,0.4,0,0.6c-0.3,0.3-0.5,0.6-0.5,0.9c-0.3-0.2-0.3-0.4,0-0.7C444.3,247.7,444.5,247.4,444.5,247.1z
		 M445,251.5c0.3,0.2,0.6,0.1,0.8-0.3c0.2-0.3,0.1-0.5-0.3-0.5c0,0.2-0.1,0.3-0.3,0.4C445.1,251.2,445,251.3,445,251.5z
		 M452.6,330.3c3.5-2.4,6.8-5.1,10-8.1c3.2-2.9,5.9-5.7,8.2-8.3h0.3c0.9-0.5,1.6-1.1,2.3-1.8c0.7-0.7,0.6-1.2-0.3-1.6
		c0.3,0,0.8,0,1.3,0c0.5,0,0.6-0.2,0.3-0.5c0,0.3-0.2,0.5-0.5,0.5c1.6-2.6,3.4-5.1,5.6-7.4c2.2-2.3,4.4-4.7,6.6-7.1
		c2.3-2.4,4.3-4.9,6.2-7.5c1.9-2.6,3.3-5.5,4.2-8.8c0.9-0.3,1.5-1,1.8-2c0.3-1,0.7-1.9,1-2.7h-0.8c0-0.5,0.2-0.9,0.5-1.2
		c0.3-0.3,0.7-0.5,1-0.6c0.3-1.6,1-3.4,2-5.5c1-2.1,1.9-4,2.7-5.7c-0.3-0.3-0.5-0.6-0.4-0.6c0.1-0.1,0-0.3-0.4-0.6
		c1.6-3.1,2.9-6.8,4.2-11.2c1.2-4.3,2-8.9,2.5-13.6c0.4-4.8,0.3-9.5-0.4-14.2c-0.7-4.7-2.3-8.8-4.7-12.5c-3.3,0.2-6.2,1.1-8.8,2.7
		c-2.6,1.6-5.5,2.6-8.6,2.7c-8.3,4.5-15.1,10-20.3,16.4c-0.2,5.9-0.8,11.6-2,17.2c-1.1,5.5-2.3,11-3.6,16.5s-2.6,10.9-3.9,16.3
		c-1.3,5.4-2.2,10.7-2.7,16.1c-0.5,0-0.9,0.3-1,0.8c0.3-0.2,0.7,0.2,1,1c-0.3-0.3-0.6-0.4-0.7-0.3c-0.1,0.2-0.3,0.3-0.6,0.3
		c-1.2,4.7-2.3,9.4-3.1,14.2c-0.9,4.8-1.8,9.5-2.9,14.2c1.2-0.2,2,0.2,2.5,1c0.4,0.9,1.3,1,2.5,0.5c0,0.3-0.2,0.6-0.7,0.8
		C452.5,329.7,452.4,330,452.6,330.3z M452,352.1c0.3,0.9,0.7,1.2,1,1C452.7,352.3,452.4,352,452,352.1z M452.8,353.4
		c0.5,1.6,1.4,2.6,2.6,3.1C454.9,355,454,354,452.8,353.4z M456.5,358.1c0,0.3,0.3,0.7,1,1C457.5,358.3,457.2,357.9,456.5,358.1z
		 M457.8,359.4c7.6,11.1,16.9,19.8,28,26.3c11,6.4,23,11.4,36,14.8c-5.2-1.9-10.4-3.9-15.6-6s-10.1-4.4-14.8-7
		c-4.7-2.6-9.1-5.5-13.4-8.8c-4.2-3.3-8-7.1-11.3-11.4c-0.9,0-1.5-0.2-1.8-0.5c-0.5-1-1.3-2.3-2.5-3.9
		C461.2,361.2,459.7,360.1,457.8,359.4z M459.3,367.2c0,0.3,0.2,0.5,0.5,0.5L459.3,367.2z M459.8,322.5c0.2-0.3,0.4-0.4,0.8-0.3
		c0.3,0.2,0.7,0.1,1-0.3C461.3,323.2,460.7,323.4,459.8,322.5z M464,373.5c0.2,0,0.3,0,0.5,0.1c0.2,0.1,0.4,0,0.8-0.1
		c-0.2-0.2-0.3-0.3-0.3-0.5c-0.2,0-0.3,0-0.3-0.1c0-0.1-0.1-0.1-0.3-0.1c0,0.3-0.1,0.6-0.3,0.8c0-0.2,0-0.3-0.1-0.3
		C464,373.2,464,373.3,464,373.5z M473.1,211c-1.4,0.9-2.7,1.8-3.9,2.9c-1.2,1-2.3,2.1-3.4,3.1c1.2-0.5,2.2-1.2,3-2
		c0.8-0.8,1.8-1.5,3-2.2c0.3,0,0.5,0.1,0.4,0.4c-0.1,0.3,0,0.4,0.4,0.4c0.2-0.3,0.4-0.6,0.8-0.8c0.3-0.2,0.5-0.5,0.5-1
		c-0.3,0.2-0.5,0.3-0.5,0.4c0,0.1-0.2,0.1-0.5,0.1c-0.2-0.3-0.1-0.6,0.1-0.6C473.2,211.5,473.3,211.3,473.1,211z M466.6,375.5
		c0-0.5,0.2-0.6,0.5-0.3c0.3,0.3,0.4,0.3,0.3-0.3c-0.3,0.2-0.5,0.1-0.5-0.1c0-0.3-0.2-0.3-0.5-0.1v0.5
		C466.3,375.6,466.4,375.7,466.6,375.5z M468.4,315.5c-0.2,0.3-0.6,0.7-1.3,1C467.1,316.2,467.6,315.8,468.4,315.5z M468.9,216.9
		c0.3,0,0.7-0.2,1-0.6c0.3-0.4,0.3-0.6,0-0.6c0,0.5-0.1,0.6-0.3,0.4c-0.2-0.3-0.4-0.3-0.8-0.1V216.9z M471,313.7l-0.3,0.3
		C470.8,313.7,470.8,313.7,471,313.7z M471.5,312.9c0,0.3-0.2,0.5-0.5,0.5L471.5,312.9z M476.2,210.2c0,0.3-0.4,0.5-1.3,0.5
		c0,0.9,0.3,1,0.9,0.5C476.4,210.7,476.6,210.4,476.2,210.2z M475.4,304.8h0.3l0.5-0.5h0.3l-0.3,0.3v0.3H476l-0.3,0.3h-0.3V304.8z
		 M476.5,304.3V304h0.3v0.3H476.5z M478,207.8c-0.3,0.2-0.5,0.2-0.5,0c0-0.2-0.2-0.2-0.5,0c0,0.5,0.2,0.8,0.5,0.8
		c-0.2-0.2-0.1-0.3,0.1-0.3S478,208.2,478,207.8z M478.3,302.5c-0.3-0.2-0.3-0.3,0.1-0.5c0.4-0.2,0.6-0.4,0.6-0.8
		c0.3,0.2,0.3,0.3,0,0.5C478.7,301.9,478.5,302.1,478.3,302.5z M480.6,206.5c-1.2,0.3-1.8,0.7-1.8,1c0.3-0.2,0.8-0.3,1.3-0.3
		C480.6,207.3,480.8,207.1,480.6,206.5z M483.5,205.5c-0.7,0-1.3,0.3-1.8,0.8c-0.5,0.5-0.6,0.6-0.3,0.3
		C482.5,206.2,483.2,205.8,483.5,205.5z M484,296c0.3,0,0.4,0.2,0.3,0.5c-0.2,0.3-0.4,0.5-0.8,0.5c-0.2-0.3-0.1-0.5,0.1-0.5
		C483.9,296.5,484,296.3,484,296z M492.3,286.6c-0.9,1.4-1.9,2.9-3.3,4.7c-1.3,1.7-2.8,3.2-4.5,4.4c1.2-1.7,2.5-3.3,3.8-4.8
		C489.6,289.4,491,288,492.3,286.6z M491.6,201.9c-1,0.3-1.9,0.6-2.6,0.8c-0.7,0.2-1.4,0.7-2.1,1.6c1-0.3,1.9-0.7,2.5-0.9
		C490,203,490.7,202.6,491.6,201.9z M496,201.1c-0.3,0.3-0.8,0.3-1.3,0c-0.5-0.3-0.7-0.2-0.5,0.5c0.3-0.2,0.7-0.2,1.2-0.1
		C495.8,201.6,496,201.4,496,201.1z M496.5,279.1c0.3,0.2,0.3,0.5-0.1,1c-0.4,0.5-0.7,1-0.9,1.6c-0.3-0.3-0.3-0.8,0.1-1.3
		C496,279.9,496.3,279.4,496.5,279.1z M498.8,275.2c0.2,0.3,0,0.8-0.4,1.3c-0.4,0.5-0.7,1-0.9,1.3c-0.3-0.3-0.3-0.8,0.1-1.3
		C498.1,276,498.5,275.5,498.8,275.2z M503,280.9c0-0.3,0.2-0.5,0.5-0.5c0-0.5-0.1-0.8-0.3-0.8c0,0.3-0.1,0.6-0.4,0.9
		C502.6,280.8,502.7,280.9,503,280.9z M505.9,273.1c0.3,0,0.7-0.3,1-0.8c0.3-0.5,0.2-0.9-0.5-1c0.3,0.5,0.3,0.9,0,1
		C506,272.5,505.9,272.8,505.9,273.1z M509,266.9c0.3-0.2,0.5-0.5,0.5-1s-0.2-0.9-0.5-1c0.2,0.3,0.1,0.7-0.3,1
		C508.4,266.2,508.5,266.5,509,266.9z M509.8,263.7c0.7-0.2,1.2-0.7,1.4-1.6c0.3-0.9,0.1-1.4-0.4-1.6c-0.3,0.7-0.5,1.2-0.5,1.6
		C510.3,262.5,510.1,263,509.8,263.7z M510.5,259.8c1.2-1,1.8-2.6,1.8-4.7c-0.7,0.9-1,1.6-1,2.3C511.3,258.2,511.1,259,510.5,259.8z
		 M514.7,400c0.9,0.5,1.9,0.9,3,1c1.1,0.2,2.1,0.3,3,0.3c-0.9-0.3-1.9-0.7-3-1.2C516.6,399.7,515.6,399.6,514.7,400z M515.7,401.8
		c0.2-0.3,0.5-0.3,1,0H515.7z M522.2,397.1c0.3,0.5,1,0.9,2,1.2c1,0.3,1.6,0.2,2-0.1c-0.9,0-1.5-0.1-2-0.4
		C523.8,397.5,523.1,397.3,522.2,397.1z M530.8,403.1l0.3-0.3C531.1,403,531,403.1,530.8,403.1z"/>
</g>
<g>
</g>
<g>
</g>
<g>
</g>
<g>
</g>
<g>
</g>
<g>
</g>
</svg>
